<?xml version="1.0" encoding="utf-8"?>
<!-- Generator: Adobe Illustrator 16.0.0, SVG Export Plug-In . SVG Version: 6.00 Build 0)  -->
<!DOCTYPE svg PUBLIC "-//W3C//DTD SVG 1.1//EN" "http://www.w3.org/Graphics/SVG/1.1/DTD/svg11.dtd">
<svg version="1.1" id="Capa_1" xmlns="http://www.w3.org/2000/svg" xmlns:xlink="http://www.w3.org/1999/xlink" x="0px" y="0px"
	 width="841.89px" height="595.281px" viewBox="0 0 841.89 595.281" enable-background="new 0 0 841.89 595.281"
	 xml:space="preserve">
<rect x="32" y="4.14" fill="#FAFAF0" width="641.289" height="586.004"/>
<g>
	<defs>
		<rect id="SVGID_1_" x="32" y="4.14" width="641.289" height="586.004"/>
	</defs>
	<clipPath id="SVGID_2_">
		<use xlink:href="#SVGID_1_"  overflow="visible"/>
	</clipPath>
	<path clip-path="url(#SVGID_2_)" fill="#494746" d="M553.662,509.75c2.806,0,5.491-0.315,8.063-0.947
		c2.558-0.632,4.814-1.595,6.785-2.889s3.535-2.934,4.708-4.904c1.182-1.956,1.761-4.272,1.761-6.95
		c0-2.166-0.347-4.047-1.068-5.626c-0.722-1.58-1.753-2.979-3.084-4.183c-1.339-1.219-2.948-2.301-4.844-3.264
		s-4.039-1.911-6.424-2.813c-1.79-0.707-3.385-1.354-4.799-1.956c-1.399-0.602-2.588-1.264-3.565-2
		c-0.993-0.737-1.737-1.58-2.241-2.527c-0.512-0.948-0.768-2.121-0.768-3.521c0-1.128,0.256-2.151,0.768-3.084
		c0.504-0.933,1.218-1.73,2.151-2.392c0.933-0.678,2.046-1.189,3.339-1.564c1.31-0.361,2.769-0.557,4.378-0.557
		c5.16,0,9.719,1.309,13.689,3.896v-8.74c-3.686-1.609-7.867-2.422-12.531-2.422c-2.633,0-5.183,0.331-7.664,1.008
		c-2.475,0.677-4.672,1.655-6.597,2.979c-1.94,1.309-3.49,2.947-4.642,4.889c-1.15,1.955-1.737,4.182-1.737,6.709
		c0,2.076,0.301,3.882,0.918,5.431c0.616,1.55,1.534,2.919,2.745,4.138c1.211,1.203,2.716,2.301,4.521,3.264
		c1.813,0.963,3.911,1.926,6.296,2.874c1.723,0.661,3.324,1.294,4.821,1.91c1.489,0.617,2.783,1.309,3.896,2.076
		c1.099,0.782,1.979,1.655,2.625,2.663c0.654,1.008,0.978,2.227,0.978,3.655c0,5.069-3.783,7.597-11.38,7.597
		c-5.642,0-10.824-1.745-15.525-5.22v9.267C543.304,508.683,548.119,509.75,553.662,509.75 M515.361,466.049
		c2.994,3.655,4.498,8.86,4.498,15.6c0,6.665-1.504,11.794-4.498,15.42c-3.009,3.61-7.296,5.431-12.877,5.431
		c-5.476,0-9.846-1.85-13.11-5.536c-3.265-3.686-4.897-8.726-4.897-15.118c0-6.619,1.61-11.84,4.845-15.601
		c3.234-3.776,7.612-5.671,13.163-5.671C508.065,460.574,512.352,462.409,515.361,466.049 M521.417,501.988
		c4.858-5.175,7.288-12.064,7.288-20.654c0-8.785-2.257-15.646-6.77-20.595c-4.498-4.949-10.778-7.432-18.819-7.432
		c-8.425,0-15.119,2.542-20.054,7.642c-4.956,5.085-7.431,12.156-7.431,21.212c0,8.319,2.377,14.999,7.13,20.038
		c4.762,5.039,11.125,7.552,19.091,7.552C510.036,509.75,516.549,507.164,521.417,501.988 M468.635,500.604
		c-1.579,1.188-3.46,1.775-5.641,1.775c-2.844,0-4.874-0.768-6.108-2.317c-1.226-1.534-1.843-4.121-1.843-7.731v-30.389h13.592
		v-7.371h-13.592v-15.946l-8.635,2.783v13.163h-9.267v7.371h9.267v31.923c0,10.53,4.724,15.78,14.164,15.78
		c3.339,0,6.017-0.557,8.063-1.669V500.604z M427.341,475.542c0-7.206-1.55-12.712-4.679-16.518s-7.627-5.717-13.532-5.717
		c-7.717,0-13.622,3.415-17.691,10.215h-0.21v-8.951h-8.635v53.916h8.635v-30.749c0-4.949,1.407-9.041,4.235-12.291
		c2.828-3.249,6.409-4.873,10.711-4.873c8.364,0,12.539,5.731,12.539,17.164v30.749h8.628V475.542z M365.166,454.571h-8.635v31.065
		c0,5.024-1.362,9.086-4.077,12.2c-2.723,3.099-6.19,4.663-10.402,4.663c-8.703,0-13.058-5.687-13.058-17.074v-30.854h-8.582v32.238
		c0,15.3,6.423,22.941,19.271,22.941c7.515,0,13.058-3.265,16.638-9.778h0.211v8.515h8.635V454.571z M281.554,440.986
		c11.794,0,17.691,4.995,17.691,14.969c0,5.085-1.61,9.026-4.814,11.81c-3.219,2.798-7.875,4.183-13.983,4.183h-9.267v-30.961
		H281.554z M281.133,479.95c8.387,0,15.051-2.272,19.978-6.845c4.934-4.559,7.401-10.41,7.401-17.586
		c0-7.161-2.227-12.697-6.665-16.639c-4.438-3.926-10.696-5.896-18.767-5.896h-20.742v75.503h8.842V479.95H281.133z"/>
	<path clip-path="url(#SVGID_2_)" fill="#455C6B" d="M160.059,531.022c33.317,0,60.332-27.003,60.332-60.324
		s-27.015-60.34-60.332-60.34c-33.322,0-60.333,27.019-60.333,60.34S126.737,531.022,160.059,531.022"/>
</g>
<g>
	<defs>
		<path id="SVGID_3_" d="M99.726,470.698c0,33.321,27.003,60.34,60.333,60.34c33.321,0,60.332-27.019,60.332-60.34
			s-27.011-60.34-60.332-60.34C126.729,410.358,99.726,437.376,99.726,470.698"/>
	</defs>
	<clipPath id="SVGID_4_">
		<use xlink:href="#SVGID_3_"  overflow="visible"/>
	</clipPath>
	<path clip-path="url(#SVGID_4_)" fill="#FFFFFF" d="M150.667,463.116c-2.622-0.286-6.804-8.319-7.172-9.868
		c0.933,1.52,8.248,0.375,14.178,8.439C157.674,461.687,158.438,463.988,150.667,463.116 M166.7,464.289
		c-0.801-0.376-1.602-0.707-2.411-1.008c-7.21-13.645-18.699-25.152-33.698-32.283c-12.629-6.002-26.116-8.108-39.102-6.8
		c4.743,2.271,9.21,5.642,12.106,10.29c-10.922-4.317-22.336-5.852-33.412-4.904c-3.953,0.346-7.864,0.992-11.693,1.955
		c2.52,0.857,4.754,2.076,6.431,3.656c-8.18-0.947-16.713-1.129-27.296,5.084c-1.271,0.783-2.527,1.596-3.75,2.453
		c3.118,0,6.037,0.797,8.579,2.286c-6.16,0.136-18.022,4.407-26.913,15.977c-2.37,3.399-4.506,7.04-6.337,10.906
		c-3.298,6.936-5.423,14.111-6.469,21.317c4.837-10.29,19.154-26.854,37.44-30.509c-18.564,7.011-34.423,30.373-37.805,48.952
		c1.617,15.329,7.966,29.937,18.271,41.58c3.027-41.836,29.162-81.115,70.321-96.324c-40.565,19.542-63.744,64.432-57.805,107.547
		c3.46,2.467,7.18,4.663,11.147,6.544c8.462,4.017,17.308,6.288,26.134,6.95c-15.404-34.51-11.286-72.029,21.035-94.233
		c-27.846,25.499-26.845,64.176-3.035,93.405c5.592-0.947,11.053-2.527,16.273-4.708c6.254-2.618,12.17-6.093,17.545-10.351
		c-16.812-12.952-22.919-36.33-13.408-56.353c4.242-8.937,4.682-29.892,12.686-34.42c5.739-3.234,13.678,9.372,24.995,8.214
		c7.879-0.827,16.059,0.617,23.731,4.258c0.478,0.225,0.937,0.466,1.399,0.707c3.915,2.016,7.42,4.527,10.47,7.431
		C183.331,480.657,177.471,469.404,166.7,464.289"/>
</g>
<g>
	<defs>
		<rect id="SVGID_5_" x="32" y="4.14" width="641.289" height="586.004"/>
	</defs>
	<clipPath id="SVGID_6_">
		<use xlink:href="#SVGID_5_"  overflow="visible"/>
	</clipPath>
	<path clip-path="url(#SVGID_6_)" fill="none" stroke="#455C6B" stroke-width="0.346" d="M160.059,531.022
		c33.317,0,60.332-27.003,60.332-60.324s-27.015-60.34-60.332-60.34c-33.322,0-60.333,27.019-60.333,60.34
		S126.737,531.022,160.059,531.022z"/>
</g>
<polygon fill="#FFFFFF" points="183.951,421.4 182.09,427.056 176.512,424.98 179.769,429.974 174.669,433.043 180.601,433.6 
	179.822,439.498 183.951,435.21 188.081,439.498 187.302,433.6 193.233,433.043 188.133,429.974 191.394,424.98 185.817,427.056 "/>
<polygon fill="#FFFFFF" points="200.401,439.512 198.754,444.522 193.824,442.687 196.705,447.094 192.199,449.802 197.438,450.298 
	196.75,455.519 200.401,451.712 204.053,455.519 203.369,450.298 208.604,449.802 204.099,447.094 206.979,442.687 202.049,444.522 
	"/>
<polygon fill="#FFFFFF" points="209.567,458.663 208.171,462.89 203.997,461.34 206.438,465.072 202.624,467.358 207.055,467.779 
	206.475,472.187 209.567,468.983 212.654,472.187 212.075,467.779 216.505,467.358 212.692,465.072 215.133,461.34 210.958,462.89 
	"/>
<polygon fill="#FFFFFF" points="210.124,476.925 208.86,480.777 205.061,479.363 207.28,482.748 203.816,484.838 207.844,485.214 
	207.31,489.231 210.124,486.313 212.933,489.231 212.402,485.214 216.43,484.838 212.967,482.748 215.182,479.363 211.387,480.777 
	"/>
<polygon fill="#FFFFFF" points="205.347,492.134 204.208,495.595 200.796,494.332 202.793,497.37 199.672,499.265 203.301,499.596 
	202.823,503.207 205.347,500.589 207.875,503.207 207.396,499.596 211.026,499.265 207.904,497.37 209.901,494.332 206.49,495.595 
	"/>
<polygon fill="#FFFFFF" points="195.967,503.869 194.828,507.314 191.417,506.065 193.41,509.104 190.292,510.984 193.917,511.331 
	193.44,514.941 195.967,512.308 198.495,514.941 198.017,511.331 201.643,510.984 198.525,509.104 200.518,506.065 197.107,507.314 
	"/>
<polygon fill="#FFFFFF" points="184.271,513.181 183.361,515.933 180.626,514.925 182.221,517.363 179.728,518.867 182.631,519.138 
	182.255,522.026 184.271,519.935 186.298,522.026 185.911,519.138 188.814,518.867 186.321,517.363 187.915,514.925 
	185.181,515.933 "/>
</svg>
