<?xml version="1.0" encoding="utf-8"?>
<!-- Generator: Adobe Illustrator 16.0.0, SVG Export Plug-In . SVG Version: 6.00 Build 0)  -->
<!DOCTYPE svg PUBLIC "-//W3C//DTD SVG 1.1//EN" "http://www.w3.org/Graphics/SVG/1.1/DTD/svg11.dtd">
<svg version="1.1" id="Capa_1" xmlns="http://www.w3.org/2000/svg" xmlns:xlink="http://www.w3.org/1999/xlink" x="0px" y="0px"
	 width="841.89px" height="595.281px" viewBox="0 0 841.89 595.281" enable-background="new 0 0 841.89 595.281"
	 xml:space="preserve">
<rect x="50" y="4.14" fill="#FAFAF0" width="641.289" height="586.004"/>
<g>
	<defs>
		<rect id="SVGID_1_" x="50" y="4.14" width="641.289" height="586.004"/>
	</defs>
	<clipPath id="SVGID_2_">
		<use xlink:href="#SVGID_1_"  overflow="visible"/>
	</clipPath>
	<path clip-path="url(#SVGID_2_)" fill="#494746" d="M584.57,544.156c2.805,0,5.49-0.316,8.063-0.948
		c2.558-0.632,4.814-1.595,6.785-2.903c1.971-1.294,3.535-2.918,4.709-4.904c1.181-1.955,1.76-4.272,1.76-6.936
		c0-2.181-0.361-4.062-1.068-5.641c-0.722-1.58-1.753-2.979-3.084-4.183c-1.339-1.218-2.948-2.302-4.844-3.265
		s-4.039-1.91-6.424-2.813c-1.79-0.707-3.393-1.354-4.799-1.956c-1.399-0.602-2.588-1.264-3.58-2.001
		c-0.979-0.736-1.723-1.579-2.227-2.527c-0.512-0.947-0.768-2.121-0.768-3.52c0-1.129,0.256-2.151,0.768-3.084
		c0.504-0.933,1.219-1.73,2.151-2.393c0.933-0.677,2.046-1.188,3.34-1.564c1.309-0.36,2.76-0.557,4.377-0.557
		c5.16,0,9.719,1.31,13.69,3.912v-8.756c-3.687-1.609-7.868-2.406-12.532-2.406c-2.632,0-5.189,0.33-7.664,0.992
		c-2.475,0.677-4.671,1.655-6.612,2.979c-1.925,1.309-3.475,2.949-4.625,4.89c-1.151,1.955-1.738,4.196-1.738,6.709
		c0,2.076,0.301,3.882,0.918,5.431c0.617,1.55,1.527,2.919,2.738,4.137c1.218,1.204,2.723,2.303,4.527,3.265
		c1.806,0.963,3.904,1.926,6.289,2.874c1.722,0.662,3.332,1.293,4.828,1.91c1.49,0.617,2.783,1.309,3.896,2.091
		c1.099,0.768,1.979,1.655,2.625,2.647c0.654,1.008,0.979,2.227,0.979,3.656c0,5.069-3.784,7.597-11.381,7.597
		c-5.648,0-10.824-1.745-15.525-5.22v9.267C574.211,543.072,579.026,544.156,584.57,544.156 M546.268,500.454
		c2.994,3.641,4.498,8.846,4.498,15.585c0,6.664-1.504,11.81-4.498,15.42c-3.009,3.61-7.296,5.431-12.877,5.431
		c-5.476,0-9.846-1.851-13.11-5.536c-3.272-3.686-4.896-8.71-4.896-15.104c0-6.635,1.609-11.84,4.844-15.615
		c3.227-3.775,7.612-5.672,13.163-5.672C538.972,494.962,543.259,496.798,546.268,500.454 M552.316,536.393
		c4.866-5.19,7.296-12.08,7.296-20.67c0-8.786-2.256-15.646-6.77-20.595c-4.513-4.949-10.786-7.416-18.819-7.416
		c-8.425,0-15.119,2.542-20.061,7.627c-4.949,5.084-7.424,12.17-7.424,21.227c0,8.318,2.377,14.982,7.131,20.022
		c4.761,5.04,11.124,7.567,19.09,7.567C540.935,544.156,547.457,541.568,552.316,536.393 M492.488,488.976l-14.337,39.368
		c-0.767,2.182-1.323,4.634-1.67,7.326h-0.226c-0.24-2.136-0.872-4.648-1.888-7.521l-13.689-39.173h-9.485l20.444,53.916h8.47
		l21.482-53.916H492.488z M441.723,488.976h-8.635v53.916h8.635V488.976z M441.535,473.646c1.106-1.083,1.655-2.392,1.655-3.941
		c0-1.609-0.549-2.963-1.655-4.031c-1.105-1.068-2.444-1.61-4.023-1.61c-1.55,0-2.866,0.542-3.949,1.61s-1.64,2.422-1.64,4.031
		s0.557,2.949,1.64,4.002c1.083,1.038,2.399,1.579,3.949,1.579C439.09,475.286,440.429,474.729,441.535,473.646 M421.557,534.994
		c-1.58,1.188-3.46,1.79-5.641,1.79c-2.836,0-4.874-0.782-6.108-2.316c-1.218-1.55-1.835-4.122-1.835-7.747v-30.373h13.584v-7.371
		h-13.584v-15.962l-8.635,2.798v13.164h-9.267v7.371h9.267v31.907c0,10.53,4.724,15.78,14.164,15.78c3.332,0,6.018-0.541,8.056-1.67
		V534.994z M380.278,509.931c0-7.191-1.564-12.712-4.686-16.503c-3.122-3.821-7.635-5.716-13.532-5.716
		c-7.725,0-13.614,3.399-17.691,10.214h-0.21v-8.95h-8.635v53.916h8.635v-30.75c0-4.949,1.414-9.056,4.242-12.29
		c2.821-3.249,6.394-4.89,10.711-4.89c8.349,0,12.531,5.732,12.531,17.18v30.75h8.635V509.931z M284.503,510.774
		c0.666-4.709,2.418-8.515,5.261-11.434c2.843-2.903,6.3-4.378,10.376-4.378c4.212,0,7.507,1.399,9.869,4.168
		c2.369,2.768,3.573,6.648,3.61,11.644H284.503z M322.465,513.556c0-8.107-1.926-14.441-5.792-19
		c-3.866-4.572-9.323-6.844-16.378-6.844c-7.056,0-12.957,2.632-17.718,7.928c-4.75,5.28-7.13,12.109-7.13,20.489
		c0,8.891,2.17,15.78,6.533,20.685c4.351,4.889,10.334,7.342,17.954,7.342c7.789,0,14.055-1.73,18.793-5.16v-8.124
		c-5.092,4.017-10.673,6.018-16.747,6.018c-5.405,0-9.651-1.64-12.738-4.904c-3.088-3.265-4.705-7.897-4.844-13.9h38.068V513.556z
		 M266.075,532.196c-4.145,3.129-8.567,4.693-13.272,4.693c-5.577,0-10.03-1.835-13.34-5.476c-3.321-3.656-4.976-8.635-4.976-14.969
		c0-6.424,1.764-11.599,5.292-15.555c3.528-3.941,8.041-5.928,13.554-5.928c4.562,0,8.842,1.414,12.847,4.228v-8.846
		c-3.618-1.76-7.792-2.632-12.531-2.632c-8.496,0-15.288,2.692-20.38,8.078c-5.092,5.385-7.631,12.516-7.631,21.406
		c0,7.974,2.362,14.457,7.086,19.451c4.712,4.995,10.921,7.508,18.608,7.508c5.683,0,10.599-1.249,14.743-3.746V532.196z
		 M213.05,509.931c0-7.191-1.564-12.712-4.683-16.503c-3.129-3.821-7.634-5.716-13.532-5.716c-7.729,0-13.618,3.399-17.695,10.214
		h-0.207v-8.95h-8.635v53.916h8.635v-30.75c0-4.949,1.41-9.056,4.234-12.29c2.828-3.249,6.401-4.89,10.715-4.89
		c8.357,0,12.531,5.732,12.531,17.18v30.75h8.635V509.931z M149.607,467.373h-8.842v75.52h8.842V467.373z"/>
</g>
</svg>
