<?xml version="1.0" encoding="utf-8"?>
<!-- Generator: Adobe Illustrator 16.0.0, SVG Export Plug-In . SVG Version: 6.00 Build 0)  -->
<!DOCTYPE svg PUBLIC "-//W3C//DTD SVG 1.1//EN" "http://www.w3.org/Graphics/SVG/1.1/DTD/svg11.dtd">
<svg version="1.1" id="Capa_1" xmlns="http://www.w3.org/2000/svg" xmlns:xlink="http://www.w3.org/1999/xlink" x="0px" y="0px"
	 width="841.89px" height="595.281px" viewBox="0 0 841.89 595.281" enable-background="new 0 0 841.89 595.281"
	 xml:space="preserve">
<rect x="42.89" y="4.14" fill="#FAFAF0" width="642.555" height="587.161"/>
<g>
	<defs>
		<rect id="SVGID_1_" x="42.89" y="4.14" width="642.555" height="587.161"/>
	</defs>
	<clipPath id="SVGID_2_">
		<use xlink:href="#SVGID_1_"  overflow="visible"/>
	</clipPath>
	<path clip-path="url(#SVGID_2_)" fill="#494746" d="M560.05,463.962h-8.651v79.979h8.651V463.962z M526.437,522.009
		c0,4.597-1.395,8.41-4.19,11.41c-2.788,3.015-6.338,4.508-10.626,4.508c-3.136,0-5.639-0.829-7.522-2.488
		c-1.884-1.688-2.818-3.828-2.818-6.48c0-3.618,1.024-6.136,3.06-7.567c2.035-1.417,5.064-2.411,9.074-2.97l13.023-1.794V522.009z
		 M535.089,508.82c0-13.444-6.347-20.153-19.038-20.153c-6.934,0-13.054,1.673-18.36,5.065v8.848
		c5.246-4.416,11.109-6.632,17.622-6.632c7.415,0,11.124,4.582,11.124,13.762l-16.188,2.276
		c-11.894,1.643-17.832,7.521-17.832,17.605c0,4.717,1.521,8.5,4.56,11.351c3.052,2.849,7.258,4.279,12.64,4.279
		c7.317,0,12.849-3.239,16.617-9.707h0.204v8.442h8.652V508.82z M478.911,489.933h-8.652v54.023h8.652V489.933z M478.722,474.573
		c1.108-1.084,1.666-2.411,1.666-3.949c0-1.627-0.558-2.969-1.666-4.039s-2.449-1.612-4.032-1.612c-1.545,0-2.863,0.542-3.949,1.612
		c-1.101,1.07-1.643,2.412-1.643,4.039c0,1.614,0.542,2.955,1.643,3.995c1.086,1.07,2.404,1.583,3.949,1.583
		C476.273,476.202,477.614,475.673,478.722,474.573 M460.868,489.707c-1.198-0.481-2.924-0.723-5.17-0.723
		c-3.128,0-5.962,1.055-8.493,3.181c-2.525,2.141-4.41,5.094-5.646,8.893h-0.211v-11.124h-8.652v54.023h8.652v-27.555
		c0-6,1.243-10.747,3.724-14.229c2.472-3.482,5.562-5.23,9.254-5.23c2.849,0,5.027,0.587,6.542,1.748V489.707z M405.503,501.434
		c3.007,3.648,4.507,8.849,4.507,15.602c0,6.691-1.5,11.847-4.507,15.464c-3.015,3.633-7.31,5.428-12.902,5.428
		c-5.487,0-9.873-1.839-13.144-5.533c-3.256-3.692-4.899-8.742-4.899-15.133c0-6.663,1.613-11.863,4.854-15.646
		c3.241-3.783,7.627-5.667,13.189-5.667C398.193,495.948,402.489,497.771,405.503,501.434 M411.563,537.429
		c4.869-5.186,7.311-12.089,7.311-20.711c0-8.787-2.261-15.661-6.783-20.62c-4.515-4.959-10.807-7.432-18.856-7.432
		c-8.441,0-15.142,2.548-20.101,7.642c-4.952,5.11-7.438,12.195-7.438,21.27c0,8.336,2.381,15.028,7.145,20.063
		c4.763,5.05,11.139,7.581,19.127,7.581C400.16,545.221,406.695,542.629,411.563,537.429 M358.679,536.028
		c-1.583,1.205-3.467,1.809-5.645,1.809c-2.849,0-4.892-0.769-6.12-2.322c-1.236-1.552-1.854-4.13-1.854-7.762v-30.434h13.619
		v-7.386H345.06v-15.992l-8.652,2.803v13.189h-9.285v7.386h9.285v31.955c0,10.567,4.733,15.843,14.199,15.843
		c3.339,0,6.03-0.573,8.072-1.704V536.028z M298.958,545.221c2.812,0,5.502-0.315,8.072-0.949c2.563-0.633,4.838-1.612,6.813-2.909
		c1.959-1.295,3.542-2.939,4.711-4.898c1.183-1.975,1.771-4.295,1.771-6.964c0-2.186-0.362-4.07-1.085-5.652
		c-0.716-1.583-1.749-2.984-3.09-4.19c-1.327-1.206-2.954-2.306-4.854-3.271c-1.899-0.965-4.039-1.914-6.436-2.818
		c-1.786-0.708-3.384-1.355-4.797-1.96c-1.406-0.587-2.6-1.265-3.587-2.004c-0.979-0.738-1.729-1.583-2.239-2.532
		c-0.508-0.949-0.765-2.125-0.765-3.543c0-1.114,0.256-2.141,0.765-3.075c0.509-0.935,1.229-1.732,2.159-2.411
		c0.935-0.664,2.054-1.176,3.35-1.553c1.3-0.361,2.762-0.542,4.383-0.542c5.177,0,9.745,1.297,13.717,3.903v-8.757
		c-3.686-1.613-7.876-2.428-12.557-2.428c-2.645,0-5.196,0.332-7.679,0.995c-2.479,0.664-4.684,1.657-6.613,2.984
		c-1.937,1.327-3.49,2.954-4.646,4.914c-1.157,1.944-1.745,4.19-1.745,6.724c0,2.063,0.309,3.889,0.927,5.426
		c0.618,1.553,1.526,2.939,2.74,4.146c1.217,1.206,2.732,2.307,4.537,3.27c1.812,0.966,3.912,1.931,6.304,2.88
		c1.729,0.663,3.335,1.311,4.827,1.93c1.492,0.603,2.804,1.311,3.912,2.08c1.1,0.769,1.982,1.658,2.63,2.652
		c0.656,1.01,0.979,2.231,0.979,3.678c0,5.05-3.798,7.583-11.399,7.583c-5.657,0-10.849-1.734-15.56-5.216v9.285
		C288.581,544.151,293.404,545.221,298.958,545.221 M270.259,489.933h-8.652v54.023h8.652V489.933z M270.074,474.573
		c1.108-1.084,1.658-2.411,1.658-3.949c0-1.627-0.55-2.969-1.658-4.039c-1.104-1.07-2.457-1.612-4.04-1.612
		c-1.542,0-2.86,0.542-3.957,1.612c-1.089,1.07-1.628,2.412-1.628,4.039c0,1.614,0.539,2.955,1.628,3.995
		c1.097,1.07,2.416,1.583,3.957,1.583C267.617,476.202,268.97,475.673,270.074,474.573 M242.931,468.303h-8.859v33.176h-39.153
		v-33.176h-8.859v75.653h8.859v-34.504h39.153v34.504h8.859V468.303z"/>
	<path clip-path="url(#SVGID_2_)" fill="none" stroke="#455C6B" stroke-width="12" d="M364.165,372.014
		c75.721,0,137.091-61.393,137.091-137.094c0-75.721-61.37-137.099-137.091-137.099c-75.716,0-137.095,61.378-137.095,137.099
		C227.07,310.622,288.449,372.014,364.165,372.014z"/>
</g>
<polyline fill="none" stroke="#455C6B" stroke-width="12" stroke-linecap="round" points="365.967,134.584 365.967,241.119 
	448.161,217.058 "/>
</svg>
