<?xml version="1.0" encoding="utf-8"?>
<!-- Generator: Adobe Illustrator 16.0.0, SVG Export Plug-In . SVG Version: 6.00 Build 0)  -->
<!DOCTYPE svg PUBLIC "-//W3C//DTD SVG 1.1//EN" "http://www.w3.org/Graphics/SVG/1.1/DTD/svg11.dtd">
<svg version="1.1" id="Capa_1" xmlns="http://www.w3.org/2000/svg" xmlns:xlink="http://www.w3.org/1999/xlink" x="0px" y="0px"
	 width="841.89px" height="595.281px" viewBox="0 0 841.89 595.281" enable-background="new 0 0 841.89 595.281"
	 xml:space="preserve">
<rect x="25.543" y="4.14" fill="#FAFAF0" width="641.289" height="586.004"/>
<g>
	<defs>
		<rect id="SVGID_1_" x="25.543" y="4.14" width="641.289" height="586.004"/>
	</defs>
	<clipPath id="SVGID_2_">
		<use xlink:href="#SVGID_1_"  overflow="visible"/>
	</clipPath>
	<path clip-path="url(#SVGID_2_)" fill="#494746" d="M529.092,499.792c-1.188-0.481-2.903-0.737-5.16-0.737
		c-3.113,0-5.941,1.068-8.469,3.189s-4.408,5.085-5.642,8.876h-0.211v-11.117h-8.627v53.916h8.627v-27.484
		c0-6.003,1.249-10.741,3.716-14.216c2.475-3.476,5.552-5.205,9.244-5.205c2.844,0,5.018,0.571,6.521,1.729V499.792z
		 M476.079,532.015c0,4.604-1.398,8.395-4.189,11.403c-2.79,3.009-6.325,4.498-10.605,4.498c-3.122,0-5.634-0.827-7.499-2.497
		c-1.881-1.67-2.821-3.821-2.821-6.454c0-3.61,1.016-6.138,3.047-7.552c2.046-1.414,5.069-2.422,9.056-2.979l13.013-1.791V532.015z
		 M484.714,518.852c0-13.403-6.334-20.113-19.008-20.113c-6.913,0-13.021,1.685-18.323,5.055v8.846
		c5.228-4.423,11.095-6.634,17.578-6.634c7.417,0,11.117,4.588,11.117,13.749l-16.164,2.257
		c-11.861,1.654-17.804,7.507-17.804,17.586c0,4.709,1.526,8.484,4.558,11.328c3.039,2.843,7.244,4.257,12.614,4.257
		c7.304,0,12.832-3.22,16.586-9.688h0.21v8.425h8.636V518.852z M428.631,500.002h-8.635v53.916h8.635V500.002z M428.458,484.673
		c1.105-1.084,1.655-2.393,1.655-3.941c0-1.609-0.55-2.949-1.655-4.017c-1.105-1.083-2.452-1.61-4.024-1.61
		c-1.549,0-2.873,0.527-3.956,1.61c-1.083,1.067-1.632,2.407-1.632,4.017s0.549,2.948,1.632,4.001
		c1.083,1.054,2.407,1.58,3.956,1.58C426.006,486.313,427.353,485.771,428.458,484.673 M402.523,474.097h-8.635v79.821h8.635
		V474.097z M376.4,500.002h-8.627v53.916h8.627V500.002z M376.22,484.673c1.113-1.084,1.67-2.393,1.67-3.941
		c0-1.609-0.557-2.949-1.67-4.017c-1.098-1.083-2.452-1.61-4.032-1.61c-1.534,0-2.858,0.527-3.941,1.61
		c-1.09,1.067-1.632,2.407-1.632,4.017s0.542,2.948,1.632,4.001c1.083,1.054,2.407,1.58,3.941,1.58
		C373.768,486.313,375.122,485.771,376.22,484.673 M351.451,520.703c0-14.638-5.935-21.964-17.804-21.964
		c-7.928,0-13.893,3.73-17.902,11.162c-1.008-3.324-2.888-6.032-5.626-8.078c-2.738-2.062-5.957-3.084-9.635-3.084
		c-7.341,0-12.915,3.265-16.744,9.794h-0.203v-8.53h-8.639v53.916h8.639v-30.749c0-5.085,1.219-9.222,3.671-12.396
		c2.467-3.175,5.588-4.769,9.379-4.769c8.176,0,12.268,5.295,12.268,15.9v32.013h8.635v-30.749c0-4.693,1.286-8.74,3.866-12.11
		c2.58-3.369,5.716-5.054,9.402-5.054c4.347,0,7.446,1.338,9.297,4.001c1.835,2.678,2.76,6.98,2.76,12.952v30.96h8.635V520.703z
		 M249.989,532.015c0,4.604-1.396,8.395-4.186,11.403c-2.794,3.009-6.33,4.498-10.613,4.498c-3.118,0-5.623-0.827-7.499-2.497
		c-1.88-1.67-2.821-3.821-2.821-6.454c0-3.61,1.016-6.138,3.058-7.552c2.035-1.414,5.055-2.422,9.056-2.979l13.005-1.791V532.015z
		 M258.621,518.852c0-13.403-6.33-20.113-19.008-20.113c-6.909,0-13.016,1.685-18.315,5.055v8.846
		c5.228-4.423,11.091-6.634,17.582-6.634c7.401,0,11.11,4.588,11.11,13.749l-16.168,2.257c-11.862,1.654-17.793,7.507-17.793,17.586
		c0,4.709,1.516,8.484,4.551,11.328c3.035,2.843,7.24,4.257,12.61,4.257c7.3,0,12.832-3.22,16.589-9.688h0.21v8.425h8.631V518.852z
		 M210.869,478.415h-38.335v75.504h8.849v-33.427h27.274v-7.958h-27.274v-26.116h29.486V478.415z"/>
	<path clip-path="url(#SVGID_2_)" fill="#494746" d="M506.874,466.742c2.813,0,5.49-0.316,8.063-0.948
		c2.557-0.632,4.828-1.61,6.792-2.903c1.963-1.294,3.535-2.934,4.716-4.904c1.166-1.955,1.76-4.272,1.76-6.936
		c0-2.182-0.36-4.062-1.083-5.641c-0.722-1.58-1.745-2.979-3.076-4.183c-1.331-1.218-2.948-2.302-4.844-3.265
		s-4.04-1.91-6.424-2.828c-1.798-0.691-3.393-1.338-4.791-1.94c-1.415-0.602-2.596-1.264-3.581-2.001
		c-0.985-0.736-1.729-1.579-2.241-2.527c-0.512-0.947-0.768-2.121-0.768-3.535c0-1.113,0.256-2.15,0.768-3.084
		c0.512-0.918,1.233-1.715,2.166-2.392c0.918-0.662,2.039-1.173,3.34-1.55c1.294-0.361,2.753-0.557,4.362-0.557
		c5.168,0,9.726,1.309,13.705,3.912v-8.756c-3.693-1.609-7.868-2.406-12.531-2.406c-2.641,0-5.197,0.33-7.672,0.992
		c-2.468,0.662-4.672,1.654-6.604,2.979c-1.934,1.309-3.476,2.934-4.634,4.889c-1.158,1.956-1.737,4.183-1.737,6.71
		c0,2.076,0.309,3.882,0.925,5.431c0.609,1.55,1.52,2.918,2.738,4.137c1.203,1.204,2.716,2.287,4.528,3.265
		c1.805,0.963,3.896,1.911,6.288,2.858c1.715,0.678,3.324,1.309,4.814,1.926c1.496,0.617,2.798,1.309,3.896,2.091
		c1.113,0.767,1.986,1.655,2.633,2.647c0.647,1.008,0.978,2.227,0.978,3.656c0,5.055-3.791,7.582-11.372,7.582
		c-5.657,0-10.832-1.73-15.54-5.205v9.267C496.523,465.658,501.337,466.742,506.874,466.742 M478.291,411.562h-8.635v31.064
		c0,5.01-1.354,9.071-4.085,12.186c-2.715,3.099-6.19,4.648-10.402,4.648c-8.695,0-13.051-5.688-13.051-17.061v-30.838h-8.582
		v32.207c0,15.314,6.424,22.973,19.271,22.973c7.507,0,13.059-3.266,16.639-9.809h0.211v8.545h8.635V411.562z M409.79,443.559
		c0,4.603-1.392,8.409-4.19,11.403c-2.783,2.993-6.318,4.498-10.605,4.498c-3.129,0-5.626-0.828-7.507-2.498
		c-1.873-1.67-2.813-3.82-2.813-6.453c0-3.611,1.015-6.123,3.054-7.553c2.031-1.414,5.055-2.406,9.056-2.979l13.005-1.774V443.559z
		 M418.424,430.396c0-13.404-6.341-20.098-19.007-20.098c-6.92,0-13.028,1.669-18.323,5.054v8.831
		c5.228-4.423,11.087-6.635,17.586-6.635c7.401,0,11.11,4.588,11.11,13.75l-16.165,2.257c-11.862,1.655-17.796,7.521-17.796,17.586
		c0,4.708,1.52,8.484,4.558,11.327c3.031,2.844,7.236,4.273,12.606,4.273c7.296,0,12.833-3.234,16.578-9.703h0.218v8.439h8.635
		V430.396z M337.438,397.962c4.957,0,8.74,1.143,11.35,3.399c2.618,2.271,3.934,5.415,3.934,9.447c0,2.257-0.398,4.288-1.173,6.077
		c-0.767,1.82-1.835,3.34-3.204,4.589c-1.369,1.249-2.994,2.212-4.875,2.873c-1.88,0.662-3.918,1.009-6.123,1.009h-12.012v-27.395
		H337.438z M356.453,442.777c-1.023-1.654-1.941-3.1-2.768-4.348c-0.828-1.234-1.655-2.361-2.497-3.34
		c-0.843-0.978-1.73-1.836-2.663-2.557c-0.933-0.723-2.023-1.354-3.287-1.926v-0.211c2.565-0.662,4.867-1.609,6.928-2.813
		c2.046-1.203,3.806-2.678,5.258-4.393c1.467-1.715,2.58-3.671,3.377-5.867c0.782-2.196,1.181-4.618,1.181-7.251
		c0-3.354-0.579-6.303-1.737-8.815c-1.159-2.513-2.768-4.603-4.814-6.288c-2.061-1.686-4.476-2.934-7.274-3.761
		c-2.791-0.827-5.829-1.249-9.139-1.249h-22.521v75.52h8.838v-32.119h7.258c1.655,0,3.144,0.196,4.453,0.602
		c1.324,0.406,2.542,1.039,3.686,1.926c1.144,0.873,2.257,2.002,3.355,3.385c1.083,1.385,2.204,3.069,3.362,5.04l12.637,21.167
		h10.531L356.453,442.777z M269.523,432.501c0-7.19-1.565-12.696-4.69-16.502c-3.122-3.807-7.635-5.701-13.524-5.701
		c-7.729,0-13.625,3.398-17.695,10.214H233.4v-8.95h-8.635v53.916h8.635v-30.765c0-4.935,1.418-9.041,4.242-12.29
		c2.821-3.234,6.394-4.875,10.715-4.875c8.349,0,12.531,5.732,12.531,17.165v30.765h8.635V432.501z M173.745,433.359
		c0.669-4.708,2.426-8.514,5.269-11.433s6.299-4.378,10.376-4.378c4.205,0,7.499,1.399,9.865,4.168
		c2.373,2.768,3.573,6.648,3.614,11.643H173.745z M211.711,436.142c0-8.107-1.933-14.441-5.792-19.015
		c-3.858-4.558-9.319-6.829-16.375-6.829c-7.055,0-12.963,2.632-17.717,7.912c-4.758,5.28-7.131,12.125-7.131,20.504
		c0,8.891,2.17,15.781,6.521,20.67c4.355,4.904,10.339,7.357,17.955,7.357c7.796,0,14.058-1.73,18.801-5.16v-8.124
		c-5.088,4.017-10.673,6.003-16.744,6.003c-5.408,0-9.658-1.625-12.738-4.89c-3.099-3.265-4.708-7.897-4.844-13.9h38.064V436.142z"
		/>
	<path clip-path="url(#SVGID_2_)" fill="#494746" d="M565.122,322.894c-1.203-0.496-2.926-0.752-5.167-0.752
		c-3.122,0-5.95,1.068-8.478,3.189c-2.527,2.137-4.407,5.085-5.634,8.876h-0.218V323.09h-8.635v53.916h8.635v-27.47
		c0-6.002,1.248-10.741,3.716-14.23c2.482-3.461,5.551-5.205,9.244-5.205c2.843,0,5.017,0.586,6.536,1.744V322.894z M519.517,323.09
		h-8.627v53.916h8.627V323.09z M519.33,307.776c1.105-1.083,1.662-2.407,1.662-3.956c0-1.61-0.557-2.949-1.662-4.018
		c-1.106-1.068-2.445-1.609-4.024-1.609c-1.542,0-2.866,0.541-3.949,1.609s-1.64,2.407-1.64,4.018c0,1.624,0.557,2.948,1.64,4.016
		c1.083,1.054,2.407,1.58,3.949,1.58C516.884,309.416,518.223,308.859,519.33,307.776 M499.351,369.124
		c-1.579,1.188-3.46,1.774-5.634,1.774c-2.843,0-4.882-0.767-6.107-2.301c-1.227-1.55-1.843-4.137-1.843-7.748v-30.388h13.584
		v-7.371h-13.584v-15.946l-8.635,2.783v13.163h-9.268v7.371h9.268v31.923c0,10.53,4.724,15.795,14.171,15.795
		c3.324,0,6.01-0.571,8.048-1.685V369.124z M461.863,322.894c-1.196-0.496-2.919-0.752-5.16-0.752c-3.129,0-5.949,1.068-8.477,3.189
		c-2.527,2.137-4.4,5.085-5.634,8.876h-0.211V323.09h-8.635v53.916h8.635v-27.47c0-6.002,1.233-10.741,3.716-14.23
		c2.467-3.461,5.551-5.205,9.236-5.205c2.844,0,5.018,0.586,6.529,1.744V322.894z M382.726,344.888
		c0.662-4.693,2.415-8.5,5.273-11.418c2.835-2.903,6.295-4.363,10.365-4.363c4.212,0,7.5,1.385,9.869,4.152
		c2.377,2.783,3.581,6.649,3.61,11.629H382.726z M420.688,347.687c0-8.109-1.933-14.442-5.792-19
		c-3.866-4.559-9.32-6.86-16.375-6.86c-7.056,0-12.96,2.647-17.722,7.928c-4.753,5.296-7.138,12.125-7.138,20.52
		c0,8.876,2.182,15.766,6.537,20.655c4.355,4.904,10.342,7.341,17.955,7.341c7.792,0,14.058-1.716,18.79-5.146v-8.107
		c-5.085,3.986-10.666,6.002-16.744,6.002c-5.401,0-9.643-1.641-12.742-4.904c-3.084-3.265-4.701-7.898-4.844-13.9h38.075V347.687z
		 M359.612,323.09L345.29,362.49c-0.774,2.166-1.339,4.603-1.685,7.311h-0.211c-0.241-2.137-0.873-4.648-1.896-7.537L327.81,323.09
		h-9.478l20.429,53.916h8.485l21.482-53.916H359.612z M310.058,344.061c0-7.206-1.549-12.696-4.679-16.519
		c-3.129-3.806-7.634-5.716-13.531-5.716c-7.725,0-13.618,3.415-17.695,10.229h-0.207v-8.966h-8.635v53.916h8.635v-30.733
		c0-4.95,1.41-9.057,4.234-12.307c2.829-3.234,6.401-4.859,10.711-4.859c8.364,0,12.531,5.717,12.531,17.166v30.733h8.635V344.061z
		 M238.169,334.583c3.005,3.641,4.498,8.846,4.498,15.585c0,6.665-1.493,11.81-4.498,15.42c-3.005,3.61-7.292,5.431-12.87,5.431
		c-5.476,0-9.854-1.851-13.118-5.536c-3.257-3.686-4.889-8.726-4.889-15.118c0-6.619,1.609-11.824,4.844-15.602
		c3.227-3.775,7.608-5.656,13.163-5.656C230.876,329.107,235.164,330.927,238.169,334.583 M244.224,370.507
		c4.859-5.175,7.292-12.064,7.292-20.654c0-8.785-2.256-15.646-6.77-20.596c-4.506-4.949-10.783-7.431-18.816-7.431
		c-8.428,0-15.111,2.558-20.064,7.642c-4.953,5.085-7.428,12.17-7.428,21.212c0,8.334,2.381,15.013,7.135,20.053
		c4.761,5.024,11.121,7.537,19.086,7.537C232.839,378.27,239.365,375.683,244.224,370.507 M187.912,365.273
		c-5.547,3.369-12.11,5.054-19.696,5.054c-8.18,0-14.78-2.723-19.816-8.184c-5.04-5.46-7.556-12.787-7.556-21.993
		c0-9.688,2.686-17.421,8.079-23.213c5.382-5.791,12.415-8.68,21.087-8.68c6.525,0,12.494,1.504,17.902,4.527v-9.432
		c-4.705-2.076-10.636-3.1-17.8-3.1c-11.163,0-20.373,3.717-27.635,11.163c-7.273,7.431-10.899,17.194-10.899,29.274
		c0,11.223,3.227,20.294,9.681,27.214c6.461,6.92,15.059,10.365,25.803,10.365c8.319,0,15.266-1.46,20.851-4.423V365.273z"/>
	<path clip-path="url(#SVGID_2_)" fill="none" stroke="#455C6B" stroke-width="10" d="M356.498,285.271v-72.183
		c0,0,0-39.256-39.264-39.256h-15.69c0,0-39.26,0-39.26,39.256v72.183"/>
	<path clip-path="url(#SVGID_2_)" fill="none" stroke="#455C6B" stroke-width="10" d="M309.389,158.126
		c23.852,0,43.183-19.331,43.183-43.183s-19.331-43.182-43.183-43.182c-23.844,0-43.179,19.331-43.179,43.182
		S285.544,158.126,309.389,158.126z"/>
	<path clip-path="url(#SVGID_2_)" fill="none" stroke="#455C6B" stroke-width="10" d="M235.886,285.271v-72.183
		c0,0,0-39.256-39.256-39.256h-15.698c0,0-39.26,0-39.26,39.256v72.183"/>
	<path clip-path="url(#SVGID_2_)" fill="none" stroke="#455C6B" stroke-width="10" d="M188.781,158.126
		c23.844,0,43.179-19.331,43.179-43.183s-19.335-43.182-43.179-43.182c-23.848,0-43.179,19.331-43.179,43.182
		S164.933,158.126,188.781,158.126z"/>
	<path clip-path="url(#SVGID_2_)" fill="none" stroke="#455C6B" stroke-width="10" d="M470.693,262.795V205.04
		c0,0,0-31.403-31.403-31.403h-12.568c0,0-31.404,0-31.404,31.403v57.756"/>
	<path clip-path="url(#SVGID_2_)" fill="none" stroke="#455C6B" stroke-width="10" d="M433.009,161.075
		c19.075,0,34.54-15.472,34.54-34.547c0-19.083-15.465-34.548-34.54-34.548c-19.083,0-34.555,15.465-34.555,34.548
		C398.454,145.603,413.926,161.075,433.009,161.075z"/>
	<path clip-path="url(#SVGID_2_)" fill="none" stroke="#455C6B" stroke-width="10" d="M553.508,279.705v-44.258
		c0,0,0-24.073-24.069-24.073h-9.629c0,0-24.077,0-24.077,24.073v44.258"/>
	<path clip-path="url(#SVGID_2_)" fill="none" stroke="#455C6B" stroke-width="10" d="M524.625,201.737
		c14.622,0,26.477-11.854,26.477-26.484c0-14.615-11.854-26.469-26.477-26.469c-14.63,0-26.484,11.854-26.484,26.469
		C498.14,189.883,509.995,201.737,524.625,201.737z"/>
</g>
</svg>
