<?xml version="1.0" encoding="utf-8"?>
<!-- Generator: Adobe Illustrator 16.0.0, SVG Export Plug-In . SVG Version: 6.00 Build 0)  -->
<!DOCTYPE svg PUBLIC "-//W3C//DTD SVG 1.1//EN" "http://www.w3.org/Graphics/SVG/1.1/DTD/svg11.dtd">
<svg version="1.1" id="Capa_1" xmlns="http://www.w3.org/2000/svg" xmlns:xlink="http://www.w3.org/1999/xlink" x="0px" y="0px"
	 width="841.89px" height="595.281px" viewBox="0 0 841.89 595.281" enable-background="new 0 0 841.89 595.281"
	 xml:space="preserve">
<rect x="100.878" y="5.14" fill="#FAFAF0" width="640.567" height="585.344"/>
<g>
	<defs>
		<rect id="SVGID_1_" x="100.878" y="5.14" width="640.567" height="585.344"/>
	</defs>
	<clipPath id="SVGID_2_">
		<use xlink:href="#SVGID_1_"  overflow="visible"/>
	</clipPath>
	<path clip-path="url(#SVGID_2_)" fill="#494746" d="M518.614,491.969c-1.194-0.481-2.915-0.721-5.153-0.721
		c-3.125,0-5.951,1.052-8.475,3.17c-2.525,2.119-4.404,5.079-5.621,8.866h-0.218v-11.09h-8.625v53.854h8.625v-27.468
		c0-5.995,1.239-10.714,3.705-14.186c2.479-3.486,5.552-5.214,9.24-5.214c2.841,0,5.012,0.571,6.521,1.728V491.969z
		 M473.069,492.195h-8.626v53.854h8.626V492.195z M472.881,476.882c1.104-1.081,1.659-2.404,1.659-3.937
		c0-1.623-0.556-2.96-1.659-4.027c-1.104-1.066-2.442-1.607-4.021-1.607c-1.548,0-2.87,0.541-3.951,1.607
		c-1.083,1.067-1.632,2.404-1.632,4.027c0,1.607,0.549,2.945,1.632,3.981c1.081,1.053,2.403,1.578,3.951,1.578
		C470.439,478.505,471.777,477.964,472.881,476.882 M446.983,466.303h-8.626v79.731h8.626V466.303z M413.473,524.156
		c0,4.599-1.394,8.4-4.177,11.39c-2.788,3.007-6.319,4.493-10.598,4.493c-3.122,0-5.623-0.826-7.498-2.494
		c-1.871-1.667-2.81-3.816-2.81-6.445c0-3.606,1.014-6.116,3.046-7.544c2.033-1.412,5.049-2.404,9.05-2.975l12.987-1.774V524.156z
		 M422.098,511.008c0-13.39-6.327-20.076-18.982-20.076c-6.908,0-13.01,1.669-18.302,5.035v8.834
		c5.221-4.417,11.078-6.626,17.562-6.626c7.404,0,11.098,4.583,11.098,13.734l-16.143,2.254c-11.856,1.653-17.78,7.514-17.78,17.567
		c0,4.702,1.514,8.474,4.553,11.313c3.031,2.841,7.236,4.268,12.597,4.268c7.295,0,12.81-3.23,16.563-9.691h0.21v8.429h8.625
		V511.008z M327.881,544.803c1.63,0.556,3.354,1.007,5.177,1.367c1.822,0.375,3.617,0.646,5.368,0.841
		c1.747,0.197,3.227,0.301,4.418,0.301c3.576,0,6.979-0.375,10.203-1.081c3.224-0.722,6.078-1.894,8.546-3.501
		c2.469-1.624,4.433-3.713,5.887-6.281c1.462-2.584,2.183-5.727,2.183-9.453c0-2.795-0.529-5.289-1.6-7.468
		c-1.067-2.163-2.514-4.147-4.339-5.936c-1.822-1.787-3.944-3.411-6.36-4.898c-2.426-1.457-4.989-2.87-7.686-4.207
		c-2.625-1.292-4.947-2.479-6.965-3.577c-2.013-1.081-3.73-2.209-5.131-3.365c-1.4-1.143-2.46-2.435-3.178-3.832
		c-0.722-1.397-1.075-3.065-1.075-5.004c0-2.059,0.47-3.817,1.413-5.26c0.947-1.427,2.178-2.614,3.685-3.516
		c1.503-0.917,3.227-1.563,5.158-1.969c1.924-0.406,3.855-0.616,5.778-0.616c6.977,0,12.695,1.548,17.15,4.629v-9.933
		c-3.404-1.789-8.817-2.69-16.251-2.69c-3.261,0-6.462,0.406-9.602,1.218c-3.137,0.812-5.932,2.028-8.385,3.681
		c-2.453,1.653-4.44,3.742-5.947,6.282c-1.506,2.539-2.261,5.529-2.261,8.97c0,2.811,0.484,5.26,1.447,7.333
		c0.969,2.089,2.292,3.952,3.97,5.605c1.683,1.652,3.671,3.155,5.947,4.523c2.277,1.367,4.73,2.72,7.363,4.042
		c2.491,1.262,4.808,2.464,6.969,3.606c2.156,1.142,4.023,2.329,5.601,3.575c1.578,1.248,2.818,2.63,3.708,4.133
		c0.894,1.504,1.341,3.276,1.341,5.305c0,3.787-1.341,6.688-4.027,8.7c-2.682,2.028-6.739,3.036-12.167,3.036
		c-1.585,0-3.302-0.165-5.158-0.481c-1.86-0.315-3.708-0.751-5.552-1.338c-1.841-0.585-3.595-1.291-5.256-2.118
		c-1.668-0.856-3.091-1.804-4.286-2.839v10.398C324.939,543.661,326.247,544.261,327.881,544.803"/>
	<path clip-path="url(#SVGID_2_)" fill="#455C6B" d="M510.125,131.695H321.15c-14.985,0-26.997,12.149-26.997,26.995v40.489
		c0,7.431,6.071,13.501,13.495,13.501c7.427,0,13.502-6.07,13.502-13.501v-26.995c0-7.416,6.07-13.494,13.497-13.494H496.63
		c7.423,0,13.494,6.078,13.494,13.494v161.991c0,7.407-6.071,13.494-13.494,13.494H334.647c-7.427,0-13.497-6.087-13.497-13.494
		v-27.004c0-7.422-6.075-13.497-13.502-13.497c-7.423,0-13.495,6.075-13.495,13.497v40.498c0,14.845,12.142,27.002,26.997,27.002
		h188.975c14.846,0,26.995-12.157,26.995-27.002V158.69C537.12,143.844,524.97,131.695,510.125,131.695 M399.303,311.079
		c5.27,5.275,13.772,5.275,19.035,0l48.45-48.457c5.267-5.26,5.267-13.764,0-19.032l-48.45-48.453
		c-5.263-5.267-13.765-5.267-19.035,0c-5.263,5.26-5.263,13.765,0,19.024l25.373,25.523H307.648
		c-7.423,0-13.495,6.071-13.495,13.494c0,7.416,6.071,13.502,13.495,13.502h117.027l-25.373,25.364
		C394.04,297.314,394.171,305.955,399.303,311.079"/>
</g>
</svg>
