<?xml version="1.0" encoding="utf-8"?>
<!-- Generator: Adobe Illustrator 16.0.0, SVG Export Plug-In . SVG Version: 6.00 Build 0)  -->
<!DOCTYPE svg PUBLIC "-//W3C//DTD SVG 1.1//EN" "http://www.w3.org/Graphics/SVG/1.1/DTD/svg11.dtd">
<svg version="1.1" id="Capa_1" xmlns="http://www.w3.org/2000/svg" xmlns:xlink="http://www.w3.org/1999/xlink" x="0px" y="0px"
	 width="841.89px" height="595.281px" viewBox="0 0 841.89 595.281" enable-background="new 0 0 841.89 595.281"
	 xml:space="preserve">
<g>
	<rect x="23" y="4.14" fill="#FAFAF0" width="640.448" height="585.235"/>
	<g>
		<defs>
			<rect id="SVGID_1_" x="23" y="4.14" width="640.448" height="585.235"/>
		</defs>
		<clipPath id="SVGID_2_">
			<use xlink:href="#SVGID_1_"  overflow="visible"/>
		</clipPath>
		<path clip-path="url(#SVGID_2_)" fill="#494746" d="M478.384,499.803c3.005,3.636,4.507,8.835,4.507,15.565
			c0,6.655-1.502,11.793-4.507,15.399c-2.997,3.605-7.286,5.423-12.853,5.423c-5.469,0-9.833-1.848-13.094-5.528
			c-3.26-3.681-4.89-8.698-4.89-15.084c0-6.626,1.607-11.823,4.837-15.595c3.223-3.771,7.609-5.664,13.146-5.664
			C471.098,494.32,475.387,496.153,478.384,499.803 M484.431,535.696c4.86-5.184,7.287-12.064,7.287-20.644
			c0-8.773-2.254-15.624-6.754-20.567c-4.507-4.942-10.779-7.406-18.802-7.406c-8.413,0-15.092,2.539-20.034,7.617
			c-4.943,5.077-7.422,12.154-7.422,21.198c0,8.309,2.381,14.964,7.136,19.997c4.748,5.032,11.103,7.557,19.065,7.557
			C473.066,543.448,479.579,540.864,484.431,535.696 M424.929,488.34h-8.624v53.846h8.624V488.34z M424.75,473.031
			c1.111-1.081,1.66-2.389,1.66-3.936c0-1.607-0.549-2.96-1.66-4.027c-1.097-1.066-2.435-1.607-4.027-1.607
			c-1.532,0-2.854,0.541-3.936,1.607c-1.097,1.067-1.63,2.42-1.63,4.027s0.534,2.944,1.63,3.996
			c1.082,1.037,2.404,1.577,3.936,1.577C422.315,474.668,423.653,474.113,424.75,473.031 M366.201,499.563
			c3.05-3.485,7.076-5.243,12.094-5.243c4.732,0,8.488,1.713,11.253,5.108c2.772,3.41,4.154,8.098,4.154,14.092
			c0,7.122-1.479,12.681-4.447,16.662c-2.96,4.011-7.054,6.009-12.274,6.009c-4.455,0-8.121-1.563-11.02-4.657
			c-2.885-3.109-4.334-6.881-4.334-11.327v-7.527C361.626,507.42,363.151,503.048,366.201,499.563 M377.98,543.448
			c7.609,0,13.597-2.72,17.983-8.128c4.379-5.424,6.565-12.635,6.565-21.635c0-8.098-1.938-14.558-5.829-19.38
			c-3.891-4.823-9.315-7.227-16.249-7.227c-8.166,0-14.37,3.575-18.622,10.727h-0.203v-9.465h-8.624v78.604h8.624v-32.557h0.203
			C365.615,540.428,371.009,543.448,377.98,543.448 M325.892,499.803c2.997,3.636,4.492,8.835,4.492,15.565
			c0,6.655-1.495,11.793-4.492,15.399c-2.997,3.605-7.279,5.423-12.86,5.423c-5.469,0-9.826-1.848-13.086-5.528
			c-3.26-3.681-4.883-8.698-4.883-15.084c0-6.626,1.608-11.823,4.823-15.595c3.23-3.771,7.61-5.664,13.146-5.664
			C318.613,494.32,322.895,496.153,325.892,499.803 M331.947,535.696c4.853-5.184,7.279-12.064,7.279-20.644
			c0-8.773-2.254-15.624-6.761-20.567c-4.5-4.942-10.765-7.406-18.803-7.406c-8.406,0-15.084,2.539-20.027,7.617
			c-4.943,5.077-7.414,12.154-7.414,21.198c0,8.309,2.374,14.964,7.121,19.997c4.755,5.032,11.11,7.557,19.058,7.557
			C320.574,543.448,327.094,540.864,331.947,535.696 M281.962,488.13c-1.202-0.496-2.911-0.736-5.157-0.736
			c-3.118,0-5.938,1.052-8.462,3.185c-2.524,2.104-4.398,5.063-5.63,8.85h-0.207V488.34h-8.624v53.846h8.624v-27.448
			c0-6.01,1.236-10.728,3.707-14.198c2.468-3.47,5.544-5.213,9.229-5.213c2.84,0,5.011,0.571,6.521,1.743V488.13z M213.919,474.759
			c11.779,0,17.672,4.987,17.672,14.948c0,5.078-1.608,9.015-4.815,11.794c-3.208,2.794-7.861,4.191-13.964,4.191h-9.251v-30.934
			H213.919z M213.499,513.685c8.376,0,15.032-2.283,19.952-6.835c4.924-4.567,7.392-10.412,7.392-17.563
			c0-7.166-2.224-12.695-6.652-16.616c-4.439-3.921-10.686-5.904-18.746-5.904H194.73v75.42h8.831v-28.501H213.499z"/>
	</g>
</g>
</svg>
