<?xml version="1.0" encoding="utf-8"?>
<!-- Generator: Adobe Illustrator 16.0.0, SVG Export Plug-In . SVG Version: 6.00 Build 0)  -->
<!DOCTYPE svg PUBLIC "-//W3C//DTD SVG 1.1//EN" "http://www.w3.org/Graphics/SVG/1.1/DTD/svg11.dtd">
<svg version="1.1" id="Capa_1" xmlns="http://www.w3.org/2000/svg" xmlns:xlink="http://www.w3.org/1999/xlink" x="0px" y="0px"
	 width="841.89px" height="595.281px" viewBox="0 0 841.89 595.281" enable-background="new 0 0 841.89 595.281"
	 xml:space="preserve">
<rect x="26" y="4.14" fill="#FAFAF0" width="641.289" height="586.004"/>
<g>
	<defs>
		<rect id="SVGID_1_" x="26" y="4.14" width="641.289" height="586.004"/>
	</defs>
	<clipPath id="SVGID_2_">
		<use xlink:href="#SVGID_1_"  overflow="visible"/>
	</clipPath>
	<path clip-path="url(#SVGID_2_)" fill="#455C6B" d="M495.551,294.929c-12.171,7.522-23.935,11.283-35.247,11.283
		c-24.01,0-39.128-15.811-45.341-47.417h65.304v-18.143h-67.38c-0.602-7.435-0.564-15.423,0.128-23.983h67.252v-18.135h-64.402
		c3.37-14.683,9.267-26.364,17.691-35.044c8.425-8.68,18.022-13.028,28.831-13.028c12.261,0,23.311,3.37,33.164,10.102v-20.985
		c-9.327-4.837-19.903-7.259-31.742-7.259c-17.45,0-32.283,5.859-44.514,17.563c-12.216,11.704-20.535,27.921-24.935,48.651h-16.977
		v18.135h14.261c-0.526,5.183-0.782,9.854-0.782,13.998c0,3.972,0.166,7.308,0.512,9.985h-13.991v18.143h15.683
		c7.078,43.702,29.057,65.559,65.943,65.559c12.877,0,25.048-3.203,36.541-9.598V294.929z M334.495,235.206h-52.34v-52.22h-17.24
		v52.22h-52.212v17.36h52.212v52.217h17.24v-52.217h52.34V235.206z"/>
	<path clip-path="url(#SVGID_2_)" fill="#494746" d="M553.25,478.144c-1.196-0.496-2.911-0.737-5.16-0.737
		c-3.121,0-5.949,1.054-8.477,3.175c-2.527,2.136-4.408,5.084-5.634,8.875h-0.203v-11.117h-8.65v53.916h8.65v-27.469
		c0-6.003,1.226-10.757,3.7-14.217c2.482-3.475,5.566-5.22,9.237-5.22c2.843,0,5.024,0.587,6.536,1.745V478.144z M500.23,510.368
		c0,4.603-1.399,8.394-4.183,11.403c-2.798,2.993-6.333,4.498-10.613,4.498c-3.129,0-5.626-0.843-7.499-2.513
		c-1.881-1.655-2.828-3.806-2.828-6.438c0-3.611,1.022-6.139,3.062-7.567c2.038-1.414,5.055-2.407,9.063-2.964l12.998-1.805V510.368
		z M508.865,497.205c0-13.419-6.341-20.113-19.016-20.113c-6.904,0-13.013,1.685-18.322,5.039v8.861
		c5.234-4.423,11.094-6.635,17.601-6.635c7.401,0,11.103,4.573,11.103,13.734l-16.172,2.272
		c-11.854,1.64-17.789,7.507-17.789,17.586c0,4.708,1.52,8.47,4.551,11.313c3.038,2.843,7.243,4.257,12.606,4.257
		c7.311,0,12.832-3.219,16.593-9.673h0.211v8.409h8.635V497.205z M439.596,521.109c-3.031,3.43-6.973,5.16-11.816,5.16
		c-4.776,0-8.605-1.806-11.508-5.401c-2.896-3.595-4.348-8.394-4.348-14.396c0-6.995,1.52-12.426,4.536-16.308
		c3.016-3.881,7.198-5.807,12.531-5.807c4.325,0,7.921,1.52,10.824,4.573c2.888,3.054,4.34,6.725,4.34,11.012v7.943
		C444.155,513.255,442.643,517.664,439.596,521.109 M452.79,478.339h-8.635v7.492h-0.218c-3.506-5.822-8.892-8.74-16.157-8.74
		c-7.657,0-13.675,2.692-18.083,8.108c-4.408,5.4-6.611,12.682-6.611,21.843c0,8.078,2.038,14.502,6.13,19.301
		c4.092,4.784,9.493,7.176,16.187,7.176c8.259,0,14.427-3.43,18.534-10.305h0.218v5.897c0,14.11-6.642,21.166-19.902,21.166
		c-5.514,0-11.306-1.7-17.375-5.055v8.636c4.987,2.527,10.809,3.791,17.473,3.791c18.955,0,28.439-9.899,28.439-29.696V478.339z
		 M398.821,478.144c-1.196-0.496-2.911-0.737-5.16-0.737c-3.129,0-5.942,1.054-8.47,3.175c-2.542,2.136-4.408,5.084-5.641,8.875
		h-0.211v-11.117h-8.635v53.916h8.635v-27.469c0-6.003,1.234-10.757,3.716-14.217c2.467-3.475,5.551-5.22,9.237-5.22
		c2.843,0,5.017,0.587,6.529,1.745V478.144z M345.792,510.368c0,4.603-1.384,8.394-4.182,11.403
		c-2.791,2.993-6.326,4.498-10.606,4.498c-3.122,0-5.626-0.843-7.507-2.513c-1.88-1.655-2.813-3.806-2.813-6.438
		c0-3.611,1.023-6.139,3.054-7.567c2.031-1.414,5.055-2.407,9.057-2.964l12.998-1.805V510.368z M354.427,497.205
		c0-13.419-6.326-20.113-19-20.113c-6.913,0-13.02,1.685-18.323,5.039v8.861c5.235-4.423,11.095-6.635,17.586-6.635
		c7.402,0,11.103,4.573,11.103,13.734l-16.157,2.272c-11.87,1.64-17.797,7.507-17.797,17.586c0,4.708,1.52,8.47,4.551,11.313
		c3.046,2.843,7.244,4.257,12.614,4.257c7.296,0,12.832-3.219,16.585-9.673h0.203v8.409h8.635V497.205z M302.783,521.575
		c-4.152,3.129-8.567,4.694-13.269,4.694c-5.581,0-10.034-1.836-13.347-5.477c-3.317-3.655-4.976-8.635-4.976-14.953
		c0-6.424,1.764-11.613,5.292-15.555c3.528-3.957,8.037-5.928,13.558-5.928c4.558,0,8.846,1.399,12.847,4.197v-8.83
		c-3.61-1.761-7.792-2.633-12.531-2.633c-8.496,0-15.288,2.692-20.38,8.078c-5.085,5.386-7.635,12.517-7.635,21.393
		c0,7.973,2.366,14.456,7.085,19.466c4.724,5.01,10.922,7.491,18.613,7.491c5.687,0,10.591-1.233,14.743-3.73V521.575z
		 M215.011,500.138c0.662-4.693,2.418-8.5,5.261-11.418c2.851-2.904,6.3-4.363,10.376-4.363c4.212,0,7.499,1.385,9.872,4.152
		c2.366,2.783,3.569,6.649,3.607,11.629H215.011z M252.97,502.936c0-8.108-1.925-14.442-5.784-19
		c-3.866-4.559-9.319-6.845-16.375-6.845c-7.055,0-12.964,2.633-17.725,7.912c-4.75,5.296-7.13,12.126-7.13,20.52
		c0,8.876,2.177,15.766,6.533,20.67c4.351,4.89,10.334,7.326,17.951,7.326c7.789,0,14.058-1.715,18.797-5.159v-8.094
		c-5.092,4.001-10.67,6.003-16.748,6.003c-5.404,0-9.65-1.641-12.738-4.904c-3.088-3.265-4.709-7.898-4.844-13.9h38.064V502.936z
		 M170.253,464.771c4.953,0,8.736,1.128,11.346,3.399c2.618,2.257,3.93,5.415,3.93,9.447c0,2.241-0.395,4.257-1.166,6.077
		c-0.768,1.806-1.839,3.34-3.212,4.574c-1.361,1.248-2.986,2.211-4.867,2.873s-3.919,0.992-6.13,0.992h-12.008v-27.363H170.253z
		 M189.264,509.57c-1.02-1.64-1.941-3.099-2.764-4.348c-0.828-1.248-1.659-2.347-2.505-3.34c-0.839-0.978-1.726-1.835-2.659-2.557
		c-0.929-0.707-2.023-1.354-3.287-1.91v-0.211c2.564-0.678,4.866-1.609,6.923-2.828c2.05-1.204,3.806-2.678,5.262-4.393
		c1.463-1.715,2.58-3.671,3.374-5.867s1.185-4.604,1.185-7.236c0-3.385-0.575-6.318-1.741-8.83
		c-1.155-2.498-2.764-4.604-4.814-6.289c-2.053-1.685-4.472-2.934-7.27-3.76c-2.787-0.828-5.829-1.234-9.135-1.234h-22.528v75.488
		h8.842v-32.117h7.262c1.647,0,3.137,0.21,4.453,0.616c1.316,0.406,2.542,1.054,3.682,1.911c1.147,0.887,2.257,2.016,3.351,3.399
		c1.087,1.384,2.211,3.069,3.366,5.04l12.637,21.15h10.531L189.264,509.57z"/>
</g>
</svg>
