<?xml version="1.0" encoding="utf-8"?>
<!-- Generator: Adobe Illustrator 16.0.0, SVG Export Plug-In . SVG Version: 6.00 Build 0)  -->
<!DOCTYPE svg PUBLIC "-//W3C//DTD SVG 1.1//EN" "http://www.w3.org/Graphics/SVG/1.1/DTD/svg11.dtd">
<svg version="1.1" id="Capa_1" xmlns="http://www.w3.org/2000/svg" xmlns:xlink="http://www.w3.org/1999/xlink" x="0px" y="0px"
	 width="841.89px" height="595.281px" viewBox="0 0 841.89 595.281" enable-background="new 0 0 841.89 595.281"
	 xml:space="preserve">
<rect x="33" y="4.14" fill="#FAFAF0" width="641.289" height="586.004"/>
<g>
	<defs>
		<rect id="SVGID_1_" x="33" y="4.14" width="641.289" height="586.004"/>
	</defs>
	<clipPath id="SVGID_2_">
		<use xlink:href="#SVGID_1_"  overflow="visible"/>
	</clipPath>
	<path clip-path="url(#SVGID_2_)" fill="#494746" d="M538.024,546.923c2.813,0,5.498-0.316,8.056-0.947
		c2.564-0.633,4.829-1.61,6.792-2.904c1.964-1.309,3.535-2.934,4.709-4.904c1.188-1.955,1.768-4.271,1.768-6.935
		c0-2.182-0.361-4.062-1.076-5.642c-0.722-1.579-1.745-2.979-3.083-4.182c-1.332-1.219-2.949-2.302-4.845-3.265
		s-4.031-1.911-6.424-2.828c-1.79-0.692-3.385-1.339-4.791-1.94c-1.399-0.602-2.595-1.264-3.58-2.001
		c-0.978-0.737-1.723-1.579-2.234-2.527s-0.767-2.121-0.767-3.535c0-1.113,0.255-2.151,0.767-3.069
		c0.512-0.933,1.227-1.729,2.159-2.406c0.925-0.662,2.038-1.174,3.34-1.55c1.301-0.361,2.76-0.557,4.37-0.557
		c5.159,0,9.726,1.309,13.689,3.896v-8.741c-3.686-1.609-7.86-2.406-12.531-2.406c-2.633,0-5.175,0.331-7.657,0.992
		c-2.475,0.662-4.679,1.655-6.611,2.979c-1.926,1.309-3.476,2.948-4.626,4.889c-1.166,1.94-1.745,4.183-1.745,6.71
		c0,2.076,0.308,3.881,0.925,5.431s1.527,2.918,2.73,4.137c1.219,1.203,2.723,2.286,4.528,3.265c1.82,0.963,3.911,1.91,6.296,2.858
		c1.722,0.677,3.332,1.309,4.821,1.925c1.489,0.617,2.79,1.31,3.896,2.092c1.105,0.767,1.985,1.654,2.632,2.647
		c0.647,1.008,0.979,2.227,0.979,3.655c0,5.055-3.791,7.582-11.381,7.582c-5.648,0-10.823-1.73-15.524-5.205v9.268
		C527.673,545.84,532.472,546.923,538.024,546.923 M499.723,503.207c2.993,3.656,4.498,8.846,4.498,15.585
		c0,6.68-1.505,11.824-4.498,15.435c-3.002,3.611-7.297,5.416-12.878,5.416c-5.476,0-9.838-1.835-13.103-5.521
		c-3.272-3.687-4.904-8.726-4.904-15.104c0-6.648,1.617-11.839,4.844-15.615c3.234-3.775,7.62-5.671,13.163-5.671
		C492.426,497.731,496.721,499.566,499.723,503.207 M505.786,539.146c4.858-5.176,7.281-12.065,7.281-20.67
		c0-8.771-2.257-15.631-6.763-20.58c-4.513-4.949-10.778-7.416-18.827-7.416c-8.424,0-15.111,2.542-20.053,7.627
		c-4.949,5.085-7.432,12.155-7.432,21.227c0,8.304,2.377,14.983,7.139,20.023c4.746,5.039,11.109,7.566,19.082,7.566
		C494.397,546.923,500.912,544.321,505.786,539.146 M452.998,537.747c-1.587,1.204-3.46,1.806-5.642,1.806
		c-2.843,0-4.874-0.782-6.107-2.332c-1.219-1.534-1.835-4.122-1.835-7.732v-30.373h13.584v-7.371h-13.584v-15.961l-8.636,2.798
		v13.163h-9.267v7.371h9.267v31.893c0,10.545,4.724,15.796,14.156,15.796c3.34,0,6.018-0.557,8.063-1.685V537.747z M410.5,491.744
		h-8.635v53.916h8.635V491.744z M410.319,476.414c1.113-1.098,1.655-2.406,1.655-3.941c0-1.624-0.542-2.963-1.655-4.031
		s-2.452-1.609-4.032-1.609c-1.549,0-2.858,0.541-3.949,1.609s-1.632,2.407-1.632,4.031c0,1.61,0.542,2.949,1.632,3.987
		c1.091,1.053,2.399,1.579,3.949,1.579C407.867,478.039,409.206,477.498,410.319,476.414 M392.492,491.518
		c-1.188-0.481-2.911-0.723-5.16-0.723c-3.129,0-5.942,1.054-8.47,3.175c-2.535,2.121-4.408,5.084-5.641,8.875h-0.211v-11.102
		h-8.635v53.916h8.635v-27.5c0-6.002,1.234-10.74,3.716-14.201c2.475-3.475,5.551-5.22,9.237-5.22c2.851,0,5.024,0.571,6.529,1.745
		V491.518z M337.237,503.207c2.994,3.656,4.498,8.846,4.498,15.585c0,6.68-1.504,11.824-4.498,15.435
		c-3.009,3.611-7.296,5.416-12.877,5.416c-5.476,0-9.838-1.835-13.11-5.521c-3.265-3.687-4.896-8.726-4.896-15.104
		c0-6.648,1.617-11.839,4.844-15.615c3.234-3.775,7.612-5.671,13.163-5.671C329.941,497.731,334.229,499.566,337.237,503.207
		 M343.292,539.146c4.859-5.176,7.289-12.065,7.289-20.67c0-8.771-2.257-15.631-6.77-20.58c-4.498-4.949-10.779-7.416-18.82-7.416
		c-8.424,0-15.111,2.542-20.053,7.627c-4.957,5.085-7.432,12.155-7.432,21.227c0,8.304,2.377,14.983,7.13,20.023
		c4.769,5.039,11.125,7.566,19.09,7.566C331.912,546.923,338.433,544.321,343.292,539.146 M283.453,491.744l-14.325,39.369
		c-0.771,2.182-1.335,4.618-1.681,7.326h-0.214c-0.248-2.151-0.88-4.648-1.896-7.521l-13.686-39.174h-9.481l20.433,53.916h8.473
		l21.482-53.916H283.453z M225.268,523.742c0,4.603-1.392,8.394-4.182,11.402c-2.794,3.009-6.33,4.498-10.613,4.498
		c-3.118,0-5.623-0.827-7.503-2.497c-1.876-1.67-2.817-3.821-2.817-6.454c0-3.61,1.016-6.122,3.058-7.552
		c2.035-1.414,5.051-2.407,9.056-2.979l13.001-1.774V523.742z M233.903,510.578c0-13.403-6.33-20.098-19.007-20.098
		c-6.909,0-13.017,1.67-18.315,5.039v8.846c5.228-4.423,11.091-6.634,17.582-6.634c7.401,0,11.106,4.588,11.106,13.75l-16.165,2.257
		c-11.862,1.654-17.792,7.521-17.792,17.586c0,4.708,1.516,8.484,4.551,11.327c3.035,2.843,7.24,4.272,12.61,4.272
		c7.3,0,12.833-3.234,16.589-9.703h0.207v8.439h8.635V510.578z M186.151,470.141h-38.334v75.519h8.849v-33.441h27.274v-7.943
		h-27.274v-26.131h29.485V470.141z"/>
	<path clip-path="url(#SVGID_2_)" fill="none" stroke="#C70000" stroke-width="8" stroke-miterlimit="10" d="M500.069,200.76
		c0,87.625-146.427,179.421-146.427,179.421S207.223,288.385,207.223,200.76c0-3.625,0.199-7.146,0.591-10.576
		c8.973-79.287,117.975-102.657,145.828-12.17c27.861-90.487,136.844-67.117,145.825,12.17
		C499.858,193.614,500.069,197.134,500.069,200.76z"/>
</g>
</svg>
