<?xml version="1.0" encoding="utf-8"?>
<!-- Generator: Adobe Illustrator 16.0.0, SVG Export Plug-In . SVG Version: 6.00 Build 0)  -->
<!DOCTYPE svg PUBLIC "-//W3C//DTD SVG 1.1//EN" "http://www.w3.org/Graphics/SVG/1.1/DTD/svg11.dtd">
<svg version="1.1" id="Capa_1" xmlns="http://www.w3.org/2000/svg" xmlns:xlink="http://www.w3.org/1999/xlink" x="0px" y="0px"
	 width="841.89px" height="595.281px" viewBox="0 0 841.89 595.281" enable-background="new 0 0 841.89 595.281"
	 xml:space="preserve">
<rect x="32" y="4.14" fill="#FAFAF0" width="641.289" height="586.004"/>
<g>
	<defs>
		<rect id="SVGID_1_" x="32" y="4.14" width="641.289" height="586.004"/>
	</defs>
	<clipPath id="SVGID_2_">
		<use xlink:href="#SVGID_1_"  overflow="visible"/>
	</clipPath>
	<path clip-path="url(#SVGID_2_)" fill="#494746" d="M572.602,509.75c2.806,0,5.49-0.315,8.056-0.947
		c2.558-0.632,4.821-1.595,6.792-2.889s3.535-2.934,4.709-4.904c1.173-1.956,1.76-4.272,1.76-6.95c0-2.166-0.346-4.047-1.075-5.626
		c-0.715-1.58-1.753-2.979-3.077-4.183c-1.339-1.219-2.948-2.301-4.844-3.264s-4.039-1.911-6.424-2.813
		c-1.79-0.707-3.385-1.354-4.799-1.956c-1.398-0.602-2.587-1.264-3.565-2c-0.992-0.737-1.737-1.58-2.241-2.527
		c-0.512-0.948-0.768-2.121-0.768-3.521c0-1.128,0.256-2.151,0.768-3.084c0.504-0.933,1.219-1.73,2.151-2.392
		c0.933-0.678,2.046-1.189,3.34-1.564c1.309-0.361,2.76-0.557,4.377-0.557c5.16,0,9.719,1.309,13.69,3.896v-8.74
		c-3.686-1.609-7.868-2.422-12.531-2.422c-2.633,0-5.19,0.331-7.665,1.008s-4.671,1.655-6.597,2.979
		c-1.94,1.309-3.49,2.947-4.641,4.889c-1.151,1.955-1.737,4.182-1.737,6.709c0,2.076,0.301,3.882,0.917,5.431
		c0.617,1.55,1.527,2.919,2.746,4.138c1.211,1.203,2.715,2.301,4.521,3.264c1.805,0.963,3.903,1.926,6.288,2.874
		c1.729,0.661,3.332,1.294,4.829,1.91c1.481,0.617,2.783,1.309,3.896,2.076c1.099,0.782,1.979,1.655,2.626,2.663
		c0.654,1.008,0.978,2.227,0.978,3.655c0,5.069-3.791,7.597-11.381,7.597c-5.641,0-10.823-1.745-15.524-5.22v9.267
		C562.245,508.683,567.058,509.75,572.602,509.75 M534.301,466.049c2.993,3.655,4.498,8.86,4.498,15.6
		c0,6.665-1.505,11.794-4.498,15.42c-3.009,3.61-7.297,5.431-12.878,5.431c-5.476,0-9.846-1.85-13.11-5.536
		c-3.271-3.686-4.896-8.726-4.896-15.118c0-6.619,1.609-11.84,4.844-15.601c3.234-3.776,7.612-5.671,13.163-5.671
		C527.004,460.574,531.292,462.409,534.301,466.049 M540.348,501.988c4.859-5.175,7.296-12.064,7.296-20.654
		c0-8.785-2.256-15.646-6.77-20.595c-4.505-4.949-10.786-7.432-18.819-7.432c-8.424,0-15.118,2.542-20.061,7.642
		c-4.957,5.085-7.424,12.156-7.424,21.212c0,8.319,2.377,14.999,7.131,20.038c4.761,5.039,11.124,7.552,19.09,7.552
		C528.968,509.75,535.49,507.164,540.348,501.988 M487.568,500.604c-1.579,1.188-3.452,1.775-5.634,1.775
		c-2.843,0-4.874-0.768-6.107-2.317c-1.233-1.534-1.843-4.121-1.843-7.731v-30.389h13.584v-7.371h-13.584v-15.946l-8.635,2.783
		v13.163h-9.268v7.371h9.268v31.923c0,10.53,4.716,15.78,14.163,15.78c3.34,0,6.018-0.557,8.056-1.669V500.604z M446.281,475.542
		c0-7.206-1.549-12.712-4.679-16.518c-3.129-3.806-7.634-5.717-13.539-5.717c-7.717,0-13.614,3.415-17.691,10.215h-0.203v-8.951
		h-8.635v53.916h8.635v-30.749c0-4.949,1.407-9.041,4.235-12.291c2.828-3.249,6.401-4.873,10.711-4.873
		c8.364,0,12.531,5.731,12.531,17.164v30.749h8.635V475.542z M384.106,454.571h-8.635v31.065c0,5.024-1.369,9.086-4.084,12.2
		c-2.715,3.099-6.183,4.663-10.403,4.663c-8.695,0-13.05-5.687-13.05-17.074v-30.854h-8.583v32.238
		c0,15.3,6.424,22.941,19.271,22.941c7.507,0,13.058-3.265,16.638-9.778h0.21v8.515h8.635V454.571z M300.494,440.986
		c11.794,0,17.691,4.995,17.691,14.969c0,5.085-1.61,9.026-4.814,11.81c-3.219,2.798-7.875,4.183-13.983,4.183h-9.267v-30.961
		H300.494z M300.073,479.95c8.387,0,15.051-2.272,19.978-6.845c4.935-4.559,7.401-10.41,7.401-17.586
		c0-7.161-2.226-12.697-6.664-16.639c-4.438-3.926-10.696-5.896-18.767-5.896h-20.741v75.503h8.842V479.95H300.073z"/>
	<path clip-path="url(#SVGID_2_)" fill="none" stroke="#C70000" stroke-width="4" stroke-miterlimit="10" d="M229.966,438.746
		c0,42.316-70.72,86.665-70.72,86.665s-70.724-44.349-70.724-86.665c0-1.761,0.098-3.461,0.293-5.115
		c4.329-38.286,56.974-49.584,70.43-5.867c13.453-43.717,66.102-32.419,70.438,5.867
		C229.868,435.285,229.966,436.985,229.966,438.746z"/>
</g>
<polygon fill="none" stroke="#C70000" stroke-width="4" points="159.246,428.064 149.486,455.684 120.193,456.436 143.446,474.248 
	135.112,502.334 159.246,485.726 183.376,502.334 175.042,474.248 198.295,456.436 169.005,455.684 "/>
</svg>
