<?xml version="1.0" encoding="utf-8"?>
<!-- Generator: Adobe Illustrator 16.0.0, SVG Export Plug-In . SVG Version: 6.00 Build 0)  -->
<!DOCTYPE svg PUBLIC "-//W3C//DTD SVG 1.1//EN" "http://www.w3.org/Graphics/SVG/1.1/DTD/svg11.dtd">
<svg version="1.1" id="Capa_1" xmlns="http://www.w3.org/2000/svg" xmlns:xlink="http://www.w3.org/1999/xlink" x="0px" y="0px"
	 width="841.89px" height="595.281px" viewBox="0 0 841.89 595.281" enable-background="new 0 0 841.89 595.281"
	 xml:space="preserve">
<rect x="99.784" y="4.14" fill="#FAFAF0" width="645.661" height="589.999"/>
<g>
	<defs>
		<rect id="SVGID_1_" x="99.784" y="4.14" width="645.661" height="589.999"/>
	</defs>
	<clipPath id="SVGID_2_">
		<use xlink:href="#SVGID_1_"  overflow="visible"/>
	</clipPath>
	<path clip-path="url(#SVGID_2_)" fill="#494746" d="M580.343,545.973c1.175-1.165,1.75-2.559,1.75-4.181
		c0-1.62-0.575-3.042-1.75-4.21c-1.158-1.195-2.582-1.786-4.24-1.786c-1.621,0-3.007,0.591-4.158,1.786
		c-1.15,1.168-1.719,2.59-1.719,4.21c0,1.622,0.568,3.016,1.719,4.181c1.151,1.168,2.537,1.758,4.158,1.758
		C577.761,547.731,579.185,547.141,580.343,545.973 M542.207,535.326c-3.067,3.454-7.021,5.195-11.898,5.195
		c-4.816,0-8.679-1.817-11.587-5.437c-2.923-3.62-4.376-8.451-4.376-14.495c0-7.043,1.514-12.511,4.559-16.419
		c3.044-3.893,7.255-5.846,12.616-5.846c4.348,0,7.982,1.53,10.897,4.604c2.916,3.075,4.37,6.771,4.37,11.088v7.997
		C546.788,527.42,545.257,531.858,542.207,535.326 M555.482,492.266h-8.694v7.542h-0.212c-3.529-5.861-8.959-8.799-16.268-8.799
		c-7.709,0-13.783,2.711-18.213,8.163c-4.438,5.438-6.656,12.768-6.656,21.992c0,8.133,2.059,14.602,6.179,19.433
		c4.113,4.816,9.55,7.226,16.298,7.226c8.3,0,14.524-3.454,18.66-10.375h0.212v5.936c0,14.208-6.68,21.312-20.039,21.312
		c-5.543,0-11.374-1.697-17.493-5.09v8.694c5.014,2.545,10.891,3.816,17.601,3.816c19.083,0,28.626-9.966,28.626-29.897V492.266z
		 M502,465.988c-1.561-0.637-3.665-0.954-6.315-0.954c-4.908,0-9.013,1.65-12.3,4.952c-3.286,3.302-4.922,7.801-4.922,13.496v8.784
		h-9.285v7.422h9.285v46.861h8.634v-46.861h12.722v-7.422h-12.722v-8.36c0-7.68,3.043-11.512,9.125-11.512
		c2.144,0,4.082,0.47,5.778,1.439V465.988z M458.789,513.38c0-7.256-1.567-12.784-4.711-16.631c-3.15-3.832-7.693-5.74-13.632-5.74
		c-7.77,0-13.706,3.423-17.812,10.283h-0.212v-9.026h-8.69v54.283h8.69v-30.943c0-4.983,1.425-9.118,4.271-12.39
		c2.848-3.256,6.438-4.892,10.784-4.892c8.413,0,12.616,5.756,12.616,17.281v30.943h8.694V513.38z M386.405,503.837
		c3.025,3.681,4.529,8.906,4.529,15.691c0,6.71-1.504,11.891-4.529,15.524c-3.025,3.637-7.346,5.468-12.958,5.468
		c-5.513,0-9.92-1.862-13.207-5.573c-3.279-3.711-4.927-8.784-4.927-15.222c0-6.664,1.621-11.905,4.881-15.706
		c3.249-3.802,7.66-5.695,13.252-5.695C379.059,498.325,383.379,500.158,386.405,503.837 M392.501,540.006
		c4.893-5.21,7.342-12.133,7.342-20.796c0-8.846-2.272-15.751-6.816-20.735c-4.536-4.982-10.856-7.466-18.944-7.466
		c-8.486,0-15.219,2.56-20.202,7.679c-4.986,5.119-7.478,12.253-7.478,21.356c0,8.392,2.397,15.115,7.183,20.189
		c4.79,5.073,11.197,7.589,19.216,7.589C381.04,547.823,387.605,545.217,392.501,540.006 M335.806,534.736
		c-5.584,3.394-12.192,5.09-19.83,5.09c-8.236,0-14.881-2.742-19.956-8.24c-5.069-5.499-7.606-12.875-7.606-22.129
		c0-9.769,2.707-17.554,8.137-23.385c5.419-5.832,12.5-8.74,21.231-8.74c6.57,0,12.58,1.515,18.024,4.56v-9.497
		c-4.741-2.09-10.712-3.12-17.922-3.12c-11.238,0-20.511,3.741-27.823,11.238c-7.323,7.482-10.974,17.313-10.974,29.475
		c0,11.299,3.249,20.447,9.748,27.399c6.505,6.967,15.16,10.437,25.979,10.437c8.375,0,15.369-1.47,20.992-4.439V534.736z"/>
	<path clip-path="url(#SVGID_2_)" fill="#455C6B" d="M456.297,302.939c-9.36,4.271-19.259,6.453-29.46,6.453
		c-27.437,0-52.564-16.074-64.041-40.99c-16.252-35.291-0.773-77.23,34.518-93.482c9.322-4.302,19.232-6.482,29.44-6.482
		c27.444,0,52.588,16.085,64.061,40.985C507.052,244.745,491.573,286.669,456.297,302.939 M554.3,256.369l-14.798-5.453
		c1.166-10.799,0.78-21.787-1.242-32.738l14.29-6.573c8.93-4.097,12.837-14.73,8.725-23.667l-8.338-18.107
		c-4.12-8.921-14.707-12.852-23.629-8.74l-14.313,6.604c-6.997-8.656-15.115-16.1-24.066-22.235l5.467-14.79
		c3.393-9.217-1.332-19.479-10.541-22.886l-18.721-6.929c-8.921-3.272-19.592,1.644-22.886,10.542l-5.453,14.806
		c-10.799-1.152-21.791-0.773-32.75,1.234l-6.585-14.268c-4.093-8.943-14.703-12.852-23.627-8.74l-18.13,8.338
		c-8.917,4.105-12.829,14.723-8.732,23.643l6.6,14.291c-8.648,7.005-16.092,15.123-22.235,24.098l-14.771-5.476
		c-8.929-3.317-19.592,1.605-22.901,10.527l-6.903,18.728c-1.65,4.468-1.465,9.307,0.526,13.624
		c2.004,4.333,5.57,7.626,10.004,9.247l14.806,5.476c-1.178,10.776-0.792,21.803,1.249,32.738l-14.302,6.581
		c-8.924,4.105-12.839,14.715-8.724,23.628l8.338,18.141c4.109,8.905,14.726,12.844,23.644,8.725l14.294-6.604
		c7.001,8.664,15.12,16.101,24.079,22.235l-5.46,14.782c-1.659,4.468-1.473,9.315,0.526,13.632
		c1.977,4.332,5.543,7.618,10.004,9.269l18.713,6.907c4.463,1.636,9.303,1.469,13.624-0.515c4.328-2,7.623-5.559,9.258-10.026
		l5.476-14.799c10.779,1.166,21.791,0.788,32.742-1.241l6.565,14.297c4.12,8.922,14.729,12.845,23.658,8.739l18.1-8.36
		c8.943-4.104,12.844-14.706,8.724-23.643l-6.573-14.283c8.649-7.013,16.101-15.116,22.228-24.067l14.79,5.483
		c4.468,1.636,9.3,1.438,13.632-0.545c4.316-2,7.604-5.56,9.254-10.009l6.906-18.728C568.25,270.061,563.509,259.777,554.3,256.369"
		/>
</g>
</svg>
