<?xml version="1.0" encoding="utf-8"?>
<!-- Generator: Adobe Illustrator 16.0.0, SVG Export Plug-In . SVG Version: 6.00 Build 0)  -->
<!DOCTYPE svg PUBLIC "-//W3C//DTD SVG 1.1//EN" "http://www.w3.org/Graphics/SVG/1.1/DTD/svg11.dtd">
<svg version="1.1" id="Capa_1" xmlns="http://www.w3.org/2000/svg" xmlns:xlink="http://www.w3.org/1999/xlink" x="0px" y="0px"
	 width="841.89px" height="595.281px" viewBox="0 0 841.89 595.281" enable-background="new 0 0 841.89 595.281"
	 xml:space="preserve">
<line fill="#FAFAF0" x1="666.832" y1="4.14" x2="25.543" y2="4.14"/>
<line fill="#FAFAF0" x1="25.543" y1="590.144" x2="666.832" y2="590.144"/>
<g>
	<defs>
		<line id="SVGID_1_" x1="666.832" y1="4.14" x2="25.543" y2="4.14"/>
	</defs>
	<defs>
		<line id="SVGID_2_" x1="25.543" y1="590.144" x2="666.832" y2="590.144"/>
	</defs>
	<clipPath id="SVGID_3_">
		<use xlink:href="#SVGID_1_"  overflow="visible"/>
	</clipPath>
	<clipPath id="SVGID_4_" clip-path="url(#SVGID_3_)">
		<use xlink:href="#SVGID_2_"  overflow="visible"/>
	</clipPath>
	<path clip-path="url(#SVGID_4_)" fill="#494746" d="M529.092,499.792c-1.188-0.481-2.903-0.737-5.16-0.737
		c-3.113,0-5.941,1.068-8.469,3.189s-4.408,5.085-5.642,8.876h-0.211v-11.117h-8.627v53.916h8.627v-27.484
		c0-6.003,1.249-10.741,3.716-14.216c2.475-3.476,5.552-5.205,9.244-5.205c2.844,0,5.018,0.571,6.521,1.729V499.792z
		 M476.079,532.015c0,4.604-1.398,8.395-4.189,11.403c-2.79,3.009-6.325,4.498-10.605,4.498c-3.122,0-5.634-0.827-7.499-2.497
		c-1.881-1.67-2.821-3.821-2.821-6.454c0-3.61,1.016-6.138,3.047-7.552c2.046-1.414,5.069-2.422,9.056-2.979l13.013-1.791V532.015z
		 M484.714,518.852c0-13.403-6.334-20.113-19.008-20.113c-6.913,0-13.021,1.685-18.323,5.055v8.846
		c5.228-4.423,11.095-6.634,17.578-6.634c7.417,0,11.117,4.588,11.117,13.749l-16.164,2.257
		c-11.861,1.654-17.804,7.507-17.804,17.586c0,4.709,1.526,8.484,4.558,11.328c3.039,2.843,7.244,4.257,12.614,4.257
		c7.304,0,12.832-3.22,16.586-9.688h0.21v8.425h8.636V518.852z M428.631,500.002h-8.635v53.916h8.635V500.002z M393.888,553.918
		h8.635 M376.4,500.002h-8.627v53.916h8.627V500.002z M351.451,520.703c0-14.638-5.935-21.964-17.804-21.964
		c-7.928,0-13.893,3.73-17.902,11.162c-1.008-3.324-2.888-6.032-5.626-8.078c-2.738-2.062-5.957-3.084-9.635-3.084
		c-7.341,0-12.915,3.265-16.744,9.794h-0.203v-8.53h-8.639v53.916h8.639v-30.749c0-5.085,1.219-9.222,3.671-12.396
		c2.467-3.175,5.588-4.769,9.379-4.769c8.176,0,12.268,5.295,12.268,15.9v32.013h8.635v-30.749c0-4.693,1.286-8.74,3.866-12.11
		c2.58-3.369,5.716-5.054,9.402-5.054c4.347,0,7.446,1.338,9.297,4.001c1.835,2.678,2.76,6.98,2.76,12.952v30.96h8.635V520.703z
		 M249.989,532.015c0,4.604-1.396,8.395-4.186,11.403c-2.794,3.009-6.33,4.498-10.613,4.498c-3.118,0-5.623-0.827-7.499-2.497
		c-1.88-1.67-2.821-3.821-2.821-6.454c0-3.61,1.016-6.138,3.058-7.552c2.035-1.414,5.055-2.422,9.056-2.979l13.005-1.791V532.015z
		 M258.621,518.852c0-13.403-6.33-20.113-19.008-20.113c-6.909,0-13.016,1.685-18.315,5.055v8.846
		c5.228-4.423,11.091-6.634,17.582-6.634c7.401,0,11.11,4.588,11.11,13.749l-16.168,2.257c-11.862,1.654-17.793,7.507-17.793,17.586
		c0,4.709,1.516,8.484,4.551,11.328c3.035,2.843,7.24,4.257,12.61,4.257c7.3,0,12.832-3.22,16.589-9.688h0.21v8.425h8.631V518.852z
		 M172.534,553.918h8.849v-33.427h27.274v-7.958h-27.274"/>
</g>
<rect x="22" y="4.14" fill="#FAFAF0" width="641.292" height="586.007"/>
<g>
	<defs>
		<rect id="SVGID_5_" x="22" y="4.14" width="641.292" height="586.007"/>
	</defs>
	<clipPath id="SVGID_6_">
		<use xlink:href="#SVGID_5_"  overflow="visible"/>
	</clipPath>
	<path clip-path="url(#SVGID_6_)" fill="#494746" d="M450.312,465.841h-8.628v79.807h8.628V465.841z M424.196,491.732h-8.635v53.916
		h8.635V491.732z M424.023,476.417c1.099-1.084,1.655-2.407,1.655-3.957c0-1.609-0.557-2.948-1.655-4.017
		c-1.113-1.083-2.452-1.609-4.031-1.609c-1.55,0-2.866,0.526-3.957,1.609c-1.083,1.068-1.625,2.407-1.625,4.017
		c0,1.625,0.542,2.949,1.625,4.017c1.09,1.038,2.407,1.58,3.957,1.58C421.571,478.057,422.91,477.5,424.023,476.417 M408.46,465.616
		c-1.549-0.632-3.633-0.948-6.273-0.948c-4.875,0-8.944,1.641-12.216,4.935c-3.264,3.28-4.896,7.748-4.896,13.39v8.74h-9.214v7.371
		h9.214v46.545h8.59v-46.545h12.629v-7.371h-12.629v-8.319c0-7.612,3.016-11.418,9.049-11.418c2.144,0,4.054,0.466,5.747,1.414
		V465.616z M370.385,491.536c-1.196-0.496-2.911-0.752-5.16-0.752c-3.122,0-5.95,1.068-8.477,3.189
		c-2.52,2.121-4.4,5.085-5.634,8.876h-0.203v-11.117h-8.635v53.916h8.635v-27.47c0-6.018,1.233-10.756,3.708-14.231
		c2.475-3.46,5.559-5.205,9.237-5.205c2.851,0,5.017,0.572,6.529,1.745V491.536z M291.248,513.53
		c0.662-4.693,2.422-8.499,5.266-11.418c2.843-2.903,6.303-4.378,10.38-4.378c4.212,0,7.492,1.384,9.869,4.167
		c2.362,2.769,3.565,6.649,3.611,11.629H291.248z M329.21,516.328c0-8.108-1.926-14.441-5.792-19
		c-3.858-4.573-9.312-6.859-16.367-6.859c-7.063,0-12.96,2.647-17.729,7.928c-4.747,5.28-7.131,12.125-7.131,20.504
		c0,8.892,2.174,15.781,6.529,20.67c4.363,4.904,10.343,7.342,17.962,7.342c7.785,0,14.051-1.715,18.79-5.16v-8.108
		c-5.085,4.002-10.666,6.018-16.744,6.018c-5.408,0-9.65-1.64-12.742-4.904c-3.083-3.265-4.708-7.897-4.844-13.9h38.068V516.328z
		 M249.866,478.147c11.794,0,17.691,4.995,17.691,14.969c0,5.085-1.609,9.026-4.821,11.81c-3.212,2.798-7.872,4.182-13.979,4.182
		h-9.263v-30.96H249.866z M249.445,517.11c8.387,0,15.047-2.271,19.978-6.845c4.931-4.559,7.401-10.41,7.401-17.586
		c0-7.16-2.227-12.697-6.661-16.639c-4.445-3.926-10.7-5.896-18.771-5.896h-20.746v75.504h8.846V517.11H249.445z"/>
	<path clip-path="url(#SVGID_6_)" fill="none" stroke="#455C6B" stroke-width="10" d="M416.11,427.856V308.74
		c0,0,0-64.777-64.778-64.777h-25.897c0,0-64.778,0-64.778,64.777v119.102"/>
	<path clip-path="url(#SVGID_6_)" fill="none" stroke="#455C6B" stroke-width="10" d="M338.379,218.061
		c39.354,0,71.262-31.908,71.262-71.247c0-39.354-31.908-71.262-71.262-71.262c-39.347,0-71.25,31.908-71.25,71.262
		C267.129,186.153,299.033,218.061,338.379,218.061z"/>
</g>
</svg>
