<?xml version="1.0" encoding="utf-8"?>
<!-- Generator: Adobe Illustrator 16.0.0, SVG Export Plug-In . SVG Version: 6.00 Build 0)  -->
<!DOCTYPE svg PUBLIC "-//W3C//DTD SVG 1.1//EN" "http://www.w3.org/Graphics/SVG/1.1/DTD/svg11.dtd">
<svg version="1.1" id="Capa_1" xmlns="http://www.w3.org/2000/svg" xmlns:xlink="http://www.w3.org/1999/xlink" x="0px" y="0px"
	 width="841.89px" height="595.281px" viewBox="0 0 841.89 595.281" enable-background="new 0 0 841.89 595.281"
	 xml:space="preserve">
<rect x="99.784" y="4.14" fill="#FAFAF0" width="641.284" height="586"/>
<g>
	<defs>
		<rect id="SVGID_1_" x="99.784" y="4.14" width="641.284" height="586"/>
	</defs>
	<clipPath id="SVGID_2_">
		<use xlink:href="#SVGID_1_"  overflow="visible"/>
	</clipPath>
	<path clip-path="url(#SVGID_2_)" fill="#494746" d="M632.002,546.905c2.813,0,5.49-0.315,8.048-0.948
		c2.572-0.632,4.83-1.595,6.8-2.888c1.964-1.31,3.535-2.934,4.709-4.905c1.173-1.955,1.768-4.271,1.768-6.948
		c0-2.168-0.36-4.047-1.076-5.627c-0.722-1.58-1.752-2.979-3.083-4.183c-1.332-1.219-2.949-2.301-4.845-3.265
		c-1.896-0.963-4.032-1.91-6.423-2.828c-1.791-0.691-3.385-1.339-4.792-1.94c-1.406-0.602-2.603-1.263-3.58-2.001
		c-0.985-0.737-1.737-1.579-2.242-2.527c-0.504-0.947-0.76-2.121-0.76-3.52c0-1.129,0.256-2.151,0.76-3.084
		c0.505-0.933,1.228-1.73,2.159-2.392c0.934-0.678,2.046-1.189,3.348-1.564c1.293-0.362,2.745-0.557,4.369-0.557
		c5.16,0,9.719,1.309,13.69,3.896v-8.74c-3.686-1.609-7.86-2.422-12.531-2.422c-2.633,0-5.19,0.331-7.657,1.008
		c-2.482,0.662-4.679,1.655-6.611,2.979c-1.934,1.309-3.476,2.947-4.641,4.889c-1.159,1.955-1.731,4.182-1.731,6.709
		c0,2.076,0.309,3.882,0.919,5.431c0.616,1.55,1.534,2.919,2.737,4.137c1.212,1.204,2.723,2.302,4.528,3.265
		c1.813,0.963,3.911,1.911,6.296,2.859c1.723,0.676,3.316,1.308,4.813,1.924c1.497,0.617,2.798,1.31,3.896,2.076
		c1.105,0.782,1.993,1.656,2.641,2.664c0.646,1.008,0.962,2.226,0.962,3.654c0,5.07-3.791,7.598-11.365,7.598
		c-5.648,0-10.823-1.745-15.532-5.22v9.266C621.653,545.836,626.452,546.905,632.002,546.905 M593.695,503.204
		c3,3.655,4.505,8.86,4.505,15.6c0,6.664-1.505,11.795-4.505,15.42c-3.002,3.61-7.289,5.431-12.87,5.431
		c-5.477,0-9.854-1.85-13.103-5.535c-3.272-3.688-4.904-8.727-4.904-15.119c0-6.619,1.609-11.84,4.844-15.601
		c3.227-3.775,7.62-5.671,13.163-5.671C586.406,497.728,590.693,499.563,593.695,503.204 M599.75,539.142
		c4.859-5.176,7.295-12.065,7.295-20.654c0-8.785-2.256-15.646-6.77-20.595c-4.512-4.95-10.785-7.432-18.818-7.432
		c-8.425,0-15.111,2.542-20.068,7.643c-4.941,5.084-7.416,12.155-7.416,21.211c0,8.318,2.377,14.998,7.13,20.038
		c4.754,5.039,11.117,7.552,19.091,7.552C588.361,546.905,594.89,544.317,599.75,539.142 M540.177,491.725h-8.635v53.916h8.635
		V491.725z M539.99,476.411c1.104-1.083,1.662-2.407,1.662-3.957c0-1.608-0.558-2.947-1.662-4.016
		c-1.106-1.083-2.445-1.609-4.025-1.609c-1.549,0-2.857,0.526-3.948,1.609c-1.091,1.068-1.632,2.407-1.632,4.016
		c0,1.625,0.541,2.949,1.632,4.018c1.091,1.038,2.399,1.58,3.948,1.58C537.544,478.051,538.883,477.494,539.99,476.411
		 M518.484,534.96c-4.145,3.129-8.567,4.693-13.269,4.693c-5.58,0-10.033-1.836-13.35-5.475c-3.317-3.656-4.973-8.636-4.973-14.97
		c0-6.423,1.76-11.599,5.288-15.555c3.527-3.942,8.048-5.927,13.561-5.927c4.56,0,8.846,1.414,12.849,4.212v-8.831
		c-3.618-1.76-7.793-2.647-12.532-2.647c-8.499,0-15.283,2.708-20.383,8.094c-5.086,5.386-7.628,12.517-7.628,21.392
		c0,7.973,2.354,14.456,7.078,19.466c4.717,4.995,10.93,7.492,18.616,7.492c5.687,0,10.598-1.249,14.742-3.73V534.96z
		 M464.252,491.725h-8.635v53.916h8.635V491.725z M464.073,476.411c1.105-1.083,1.654-2.407,1.654-3.957
		c0-1.608-0.549-2.947-1.654-4.016c-1.113-1.083-2.453-1.609-4.032-1.609c-1.55,0-2.858,0.526-3.956,1.609
		c-1.083,1.068-1.625,2.407-1.625,4.016c0,1.625,0.542,2.949,1.625,4.018c1.098,1.038,2.406,1.58,3.956,1.58
		C461.62,478.051,462.959,477.494,464.073,476.411 M448.51,465.61c-1.55-0.632-3.633-0.948-6.266-0.948
		c-4.882,0-8.951,1.64-12.216,4.919c-3.265,3.296-4.896,7.763-4.896,13.404v8.74h-9.21v7.371h9.21v46.545h8.582v-46.545h12.637
		v-7.371h-12.637v-8.319c0-7.612,3.017-11.418,9.057-11.418c2.136,0,4.046,0.466,5.739,1.415V465.61z M370.848,513.523
		c0.669-4.693,2.418-8.499,5.265-11.418c2.843-2.919,6.303-4.377,10.369-4.377c4.212,0,7.502,1.384,9.876,4.166
		c2.369,2.769,3.573,6.649,3.603,11.629H370.848z M408.81,516.321c0-8.107-1.932-14.441-5.792-18.999
		c-3.866-4.573-9.319-6.86-16.375-6.86s-12.963,2.647-17.721,7.928c-4.753,5.28-7.135,12.125-7.135,20.505
		c0,8.891,2.182,15.781,6.533,20.669c4.352,4.905,10.335,7.342,17.954,7.342c7.793,0,14.055-1.715,18.794-5.16v-8.108
		c-5.085,4.002-10.67,6.018-16.737,6.018c-5.407,0-9.662-1.64-12.749-4.904c-3.087-3.264-4.705-7.898-4.844-13.9h38.071V516.321z
		 M349.204,512.695c0-7.205-1.557-12.711-4.682-16.517c-3.129-3.806-7.634-5.717-13.535-5.717c-7.717,0-13.619,3.415-17.691,10.215
		h-0.207v-8.951h-8.635v53.916h8.635v-30.749c0-4.949,1.406-9.041,4.235-12.291c2.827-3.248,6.4-4.873,10.714-4.873
		c8.357,0,12.531,5.731,12.531,17.164v30.749h8.635V512.695z M253.433,513.523c0.663-4.693,2.419-8.499,5.262-11.418
		c2.847-2.919,6.299-4.377,10.372-4.377c4.216,0,7.504,1.384,9.876,4.166c2.366,2.769,3.574,6.649,3.604,11.629H253.433z
		 M291.4,516.321c0-8.107-1.938-14.441-5.796-18.999c-3.866-4.573-9.319-6.86-16.375-6.86c-7.055,0-12.96,2.647-17.721,7.928
		c-4.754,5.28-7.134,12.125-7.134,20.505c0,8.891,2.181,15.781,6.532,20.669c4.352,4.905,10.339,7.342,17.954,7.342
		c7.79,0,14.059-1.715,18.793-5.16v-8.108c-5.092,4.002-10.666,6.018-16.743,6.018c-5.401,0-9.65-1.64-12.742-4.904
		c-3.087-3.264-4.705-7.898-4.844-13.9H291.4V516.321z M206.411,510.485c12.147,0,18.222,4.452,18.222,13.357
		c0,4.289-1.429,7.657-4.295,10.109c-2.858,2.453-6.886,3.687-12.08,3.687h-12.005v-27.153H206.411z M206.411,478.141
		c9.658,0,14.479,3.67,14.479,11.012c0,4.242-1.388,7.536-4.16,9.868c-2.771,2.332-6.578,3.506-11.422,3.506h-9.056v-24.386H206.411
		z M209.417,545.641c7.055,0,12.899-2.002,17.529-5.987c4.636-4.018,6.954-9.236,6.954-15.69c0-5.205-1.531-9.433-4.581-12.667
		c-3.05-3.249-7.126-5.174-12.215-5.776v-0.195c4.073-1.339,7.262-3.596,9.579-6.739c2.321-3.159,3.475-6.891,3.475-11.178
		c0-5.115-1.911-9.282-5.739-12.471c-3.828-3.189-9.003-4.799-15.529-4.799h-21.482v75.503H209.417z"/>
</g>
</svg>
