<?xml version="1.0" encoding="utf-8"?>
<!-- Generator: Adobe Illustrator 16.0.0, SVG Export Plug-In . SVG Version: 6.00 Build 0)  -->
<!DOCTYPE svg PUBLIC "-//W3C//DTD SVG 1.1//EN" "http://www.w3.org/Graphics/SVG/1.1/DTD/svg11.dtd">
<svg version="1.1" id="Capa_1" xmlns="http://www.w3.org/2000/svg" xmlns:xlink="http://www.w3.org/1999/xlink" x="0px" y="0px"
	 width="841.89px" height="595.28px" viewBox="0 0 841.89 595.28" enable-background="new 0 0 841.89 595.28" xml:space="preserve">
<g>
	<defs>
		<rect id="SVGID_1_" x="159.772" y="67.615" width="548.389" height="476.928"/>
	</defs>
	<clipPath id="SVGID_2_">
		<use xlink:href="#SVGID_1_"  overflow="visible"/>
	</clipPath>
	<path clip-path="url(#SVGID_2_)" fill="#435463" d="M516.066,403.529h-40.921c-2.82,0-5.087-2.277-5.108-5.086l-0.116-77.055
		l-88.763-18.076c-1.023-0.208-1.956-0.715-2.664-1.463c-5.535-5.753-8.355-13.612-7.826-21.691
		c-0.011-0.184-0.024-0.369-0.024-0.564c0-5.741,0.346-17.549,0.766-32.508c0.673-23.567,1.605-55.834,1.605-80.46
		c0-2.82,2.284-5.109,5.104-5.109c2.825,0,5.11,2.29,5.11,5.109c0,24.764-0.928,57.135-1.612,80.76
		c-0.402,14.142-0.73,25.454-0.765,31.334c0.092,0.471,0.116,0.955,0.07,1.438c-0.507,4.937,0.921,9.781,3.924,13.487l91.209,18.562
		c2.357,0.482,4.073,2.566,4.083,4.994l0.092,76.121h30.726v-94.004l-65.569-23.821c-2.025-0.736-3.364-2.681-3.353-4.845
		l0.066-7.698c0.181-18.527,0.323-34.534-0.113-50.726c-0.087-2.808,2.146-5.155,4.966-5.236c2.853-0.161,5.167,2.14,5.225,4.959
		c0.459,16.375,0.311,32.463,0.137,51.094l-0.045,4.085l65.522,23.809c2.025,0.725,3.361,2.646,3.361,4.809v102.682
		C521.153,401.24,518.874,403.529,516.066,403.529"/>
	<path clip-path="url(#SVGID_2_)" fill="#435463" d="M411.986,77.811c-12.277,0-22.266,7.86-22.266,17.526v22.601
		c0,9.666,9.988,17.525,22.266,17.525c12.269,0,22.261-7.859,22.261-17.525V95.337C434.247,85.671,424.255,77.811,411.986,77.811
		 M411.986,145.659c-17.912,0-32.473-12.428-32.473-27.721V95.337c0-15.293,14.561-27.733,32.473-27.733
		c17.899,0,32.469,12.44,32.469,27.733v22.601C444.455,133.231,429.886,145.659,411.986,145.659"/>
	<path clip-path="url(#SVGID_2_)" fill="#435463" d="M460.923,107.27h-76.319c-2.813,0-5.104-2.29-5.104-5.109
		c0-2.831,2.29-5.099,5.104-5.099h76.319c2.808,0,5.098,2.268,5.098,5.099C466.021,104.98,463.73,107.27,460.923,107.27"/>
	<path clip-path="url(#SVGID_2_)" fill="#435463" d="M622.085,544.543c-47.458,0-86.065-38.619-86.065-86.064
		c0-4.695,0.368-9.379,1.116-13.947c0.45-2.773,3.073-4.648,5.857-4.199c2.785,0.447,4.674,3.072,4.212,5.855
		c-0.656,4.006-0.967,8.146-0.967,12.291c0,41.83,34.017,75.857,75.847,75.857c41.829,0,75.869-34.027,75.869-75.857
		c0-29.09-16.985-55.973-43.245-68.516c-2.545-1.209-3.625-4.246-2.418-6.801c1.221-2.543,4.271-3.625,6.813-2.418
		c29.793,14.225,49.058,44.742,49.058,77.734C708.161,505.924,669.552,544.543,622.085,544.543"/>
	<path clip-path="url(#SVGID_2_)" fill="#435463" d="M622.085,413.623c-24.729,0-44.847,20.115-44.847,44.844
		c0,24.742,20.118,44.867,44.847,44.867s44.844-20.125,44.844-44.867C666.929,433.738,646.813,413.623,622.085,413.623
		 M622.085,513.541c-30.369,0-55.064-24.717-55.064-55.074s24.695-55.064,55.064-55.064c30.368,0,55.063,24.707,55.063,55.064
		S652.453,513.541,622.085,513.541"/>
	<path clip-path="url(#SVGID_2_)" fill="#435463" d="M622.085,446.568c-6.571,0-11.91,5.34-11.91,11.898
		c0,6.582,5.339,11.922,11.91,11.922c6.559,0,11.898-5.34,11.898-11.922C633.983,451.908,628.644,446.568,622.085,446.568
		 M622.085,480.584c-12.198,0-22.131-9.92-22.131-22.117c0-12.188,9.933-22.105,22.131-22.105c12.186,0,22.116,9.918,22.116,22.105
		C644.201,470.664,634.271,480.584,622.085,480.584"/>
	<path clip-path="url(#SVGID_2_)" fill="#435463" d="M259.201,463.576c1.923,4.027,6.014,6.813,10.761,6.813
		c4.741,0,8.849-2.785,10.759-6.813H259.201z M269.962,480.584c-12.193,0-22.105-9.92-22.105-22.117
		c0-2.809,2.272-5.098,5.104-5.098h34.008c2.827,0,5.11,2.289,5.11,5.098C292.079,470.664,282.161,480.584,269.962,480.584"/>
	<path clip-path="url(#SVGID_2_)" fill="#435463" d="M170.111,453.369h199.707c-2.676-52.762-46.438-94.879-99.856-94.879
		C216.549,358.49,172.782,400.607,170.111,453.369 M375.048,463.576H164.875c-2.813,0-5.104-2.289-5.104-5.109
		c0-60.748,49.424-110.184,110.19-110.184c60.759,0,110.19,49.436,110.19,110.184C380.152,461.287,377.868,463.576,375.048,463.576"
		/>
	<path clip-path="url(#SVGID_2_)" fill="#435463" d="M194.265,463.576c2.629,39.447,35.587,70.76,75.697,70.76
		c40.115,0,73.06-31.313,75.689-70.76H194.265z M269.962,544.543c-47.462,0-86.076-38.619-86.076-86.064
		c0-2.82,2.284-5.109,5.109-5.109h161.933c2.82,0,5.104,2.289,5.104,5.109C356.031,505.924,317.418,544.543,269.962,544.543"/>
	<path clip-path="url(#SVGID_2_)" fill="#435463" d="M225.398,463.576c2.531,22.336,21.565,39.758,44.563,39.758
		c23.014,0,42.02-17.422,44.568-39.758H225.398z M269.962,513.541c-30.364,0-55.064-24.717-55.064-55.074
		c0-2.809,2.286-5.098,5.117-5.098h99.913c2.813,0,5.104,2.289,5.104,5.098C325.031,488.824,300.317,513.541,269.962,513.541"/>
	<path clip-path="url(#SVGID_2_)" fill="#435463" d="M436.63,428.387c-13.338,0-24.379-1.703-30.587-5.039
		c-3.739-2.016-6.272-5.469-7.318-9.99c-5.834-25.029,36.059-84.729,36.468-85.328c1.638-2.301,4.833-2.83,7.116-1.196
		c2.319,1.646,2.848,4.822,1.204,7.123c-16.049,22.519-38.229,62.589-34.848,77.089c0.497,2.141,1.453,2.9,2.228,3.314
		c12.942,6.961,61.375,5.072,96.682-10.428c12.887-5.648,29.045-15.488,32.818-30.264c9.724-38.205,5.938-116.524,4.995-133.096
		l-24.361-10.391c-2.591-1.115-3.81-4.108-2.704-6.697c1.104-2.589,4.118-3.809,6.707-2.704l27.286,11.633
		c1.747,0.759,2.944,2.439,3.082,4.362c0.254,3.865,6.146,95.201-5.133,139.412c-3.783,14.846-17.122,27.676-38.582,37.09
		C488.472,423.473,459.266,428.387,436.63,428.387"/>
	<path clip-path="url(#SVGID_2_)" fill="#435463" d="M189,396.59c-0.282,0-0.564-0.021-0.857-0.068
		c-2.785-0.471-4.655-3.096-4.183-5.879c0.443-2.635,11.369-64.754,53.964-64.754H437.48c1.147-1.381,4.08-5.546,7.308-15.431
		c0.874-2.669,3.754-4.144,6.434-3.269c2.682,0.873,4.132,3.762,3.268,6.434c-5.56,17.02-11.175,21.057-12.777,21.898
		c-0.73,0.379-1.532,0.574-2.354,0.574H237.924c-34.05,0-43.797,55.686-43.901,56.236C193.61,394.83,191.44,396.59,189,396.59"/>
	<path clip-path="url(#SVGID_2_)" fill="#435463" d="M505.802,463.576H375.048c-2.82,0-5.104-2.289-5.104-5.109
		c0-2.809,2.284-5.098,5.104-5.098h130.753c21.634,0,71.253-30.299,80.323-70.184c-0.564-9.875-6.791-120.23-10.817-141.992
		c-3.028-16.271-34.41-26.352-46.238-28.85c-2.763-0.575-4.521-3.302-3.946-6.053c0.587-2.75,3.302-4.521,6.041-3.936
		c5.04,1.06,49.391,11.106,54.189,36.986c4.315,23.314,10.735,139.057,11.001,143.969c0.01,0.461-0.014,0.922-0.116,1.359
		C586.238,431.045,531.601,463.576,505.802,463.576"/>
	<path clip-path="url(#SVGID_2_)" fill="#435463" d="M586.238,403.529c-2.415,0-4.557-1.713-5.019-4.178
		c-0.517-2.771,1.326-5.432,4.099-5.949l104.143-19.217c-39.149-37.768-96.778-28.779-97.377-28.676
		c-2.784,0.459-5.408-1.428-5.867-4.211c-0.462-2.775,1.412-5.41,4.2-5.87c2.842-0.484,70.332-11.081,113.061,38.757
		c1.196,1.381,1.542,3.303,0.942,5.029c-0.61,1.715-2.093,2.98-3.89,3.303l-113.347,20.934
		C586.86,403.508,586.538,403.529,586.238,403.529"/>
	<path clip-path="url(#SVGID_2_)" fill="#435463" d="M457.839,210.412c0.229,0,0.46,0.011,0.691,0.034l65.97,9.057
		c2.417-0.851,3.902-3.395,3.373-5.983c-0.551-2.763-3.313-4.662-6.191-4.074c-0.587,0.115-1.207,0.138-1.817,0.035l-62.879-10.035
		c-0.689-0.104-1.345-0.358-1.932-0.736l-63.775-40.863c-2.394-1.531-5.718-0.771-7.226,1.576c-0.755,1.174-1.002,2.578-0.709,3.947
		c0.3,1.357,1.112,2.521,2.291,3.28l67.302,43.129c1.15,0.738,2.601,1.002,3.865,0.725
		C457.137,210.445,457.493,210.412,457.839,210.412 M524.823,229.802c-0.219,0-0.459-0.011-0.678-0.046l-66.239-9.08
		c-3.611,0.507-7.388-0.31-10.483-2.301l-67.295-43.13c-3.487-2.221-5.88-5.674-6.749-9.713c-0.886-4.027-0.144-8.146,2.083-11.622
		c2.853-4.441,7.722-7.112,12.999-7.112c2.945,0,5.833,0.852,8.331,2.452l62.866,40.287l60.987,9.736
		c8.139-1.082,15.616,4.373,17.238,12.198c1.704,8.354-3.705,16.524-12.036,18.227C525.502,229.767,525.18,229.802,524.823,229.802"
		/>
	<path clip-path="url(#SVGID_2_)" fill="#435463" d="M226.577,338.018c-2.461,0-4.631-1.783-5.034-4.292l-6.587-40.426
		c-0.236-1.472,0.188-2.979,1.168-4.13c0.964-1.14,2.38-1.796,3.89-1.796h158.112c2.818,0,5.104,2.291,5.104,5.11
		c0,2.818-2.286,5.109-5.104,5.109H226.009l5.609,34.498c0.451,2.786-1.438,5.409-4.218,5.858
		C227.131,337.994,226.848,338.018,226.577,338.018"/>
	<path clip-path="url(#SVGID_2_)" fill="#435463" d="M219.006,287.385h135.938v-133.89H219.006V287.385z M360.048,297.58H213.909
		c-2.82,0-5.104-2.278-5.104-5.097V148.398c0-2.82,2.284-5.121,5.104-5.121h146.139c2.813,0,5.104,2.301,5.104,5.121v144.085
		C365.151,295.302,362.861,297.58,360.048,297.58"/>
	<path clip-path="url(#SVGID_2_)" fill="#435463" d="M280.007,177.742h13.964v-24.246h-13.964V177.742z M299.075,187.949h-24.182
		c-2.814,0-5.104-2.291-5.104-5.098v-34.465c0-2.808,2.29-5.098,5.104-5.098h24.182c2.813,0,5.097,2.29,5.097,5.098v34.465
		C304.172,185.659,301.888,187.949,299.075,187.949"/>
	<path clip-path="url(#SVGID_2_)" fill="#435463" d="M634.707,268.34h-21.241c-10.127,0-31.509-10.817-33.926-12.048
		c-2.496-1.289-3.485-4.361-2.21-6.869c1.291-2.509,4.352-3.51,6.883-2.209c8.238,4.223,23.476,10.92,29.253,10.92h16.145v-35.731
		h-16.145c-17.825,0-28.516,20.023-28.619,20.229c-1.301,2.499-4.384,3.464-6.882,2.164c-2.485-1.312-3.466-4.373-2.174-6.869
		c0.551-1.048,13.601-25.731,37.675-25.731h20.92c2.831,0,5.432,2.277,5.432,5.097v45.95
		C639.817,266.05,637.538,268.34,634.707,268.34"/>
</g>
</svg>
